<?xml version="1.0" encoding="UTF-8" standalone="no"?>
<!-- Created with Inkscape (http://www.inkscape.org/) -->

<svg
   version="1.1"
   id="svg24869"
   width="604"
   height="340"
   viewBox="0 0 604 340"
   sodipodi:docname="cilindro_CD-eps-converted-to.pdf"
   xmlns:inkscape="http://www.inkscape.org/namespaces/inkscape"
   xmlns:sodipodi="http://sodipodi.sourceforge.net/DTD/sodipodi-0.dtd"
   xmlns="http://www.w3.org/2000/svg"
   xmlns:svg="http://www.w3.org/2000/svg"
   xmlns:ns4="http://www.iki.fi/pav/software/textext/">
  <defs
     id="defs24873" />
  <sodipodi:namedview
     id="namedview24871"
     pagecolor="#ffffff"
     bordercolor="#000000"
     borderopacity="0.25"
     inkscape:showpageshadow="2"
     inkscape:pageopacity="0.0"
     inkscape:pagecheckerboard="0"
     inkscape:deskcolor="#d1d1d1"
     showgrid="false"
     inkscape:zoom="3.5022583"
     inkscape:cx="138.19655"
     inkscape:cy="235.70506"
     inkscape:window-width="1854"
     inkscape:window-height="1011"
     inkscape:window-x="66"
     inkscape:window-y="32"
     inkscape:window-maximized="1"
     inkscape:current-layer="g24877">
    <inkscape:page
       x="0"
       y="0"
       id="page24875"
       width="604"
       height="340" />
  </sodipodi:namedview>
  <g
     id="g24877"
     inkscape:groupmode="layer"
     inkscape:label="Page 1"
     transform="matrix(1.33333 0 0 -1.33333 0 340)">
    <g
       id="g24879"
       transform="scale(0.1)">
      <path
         d="M 392,256 H 4390.5"
         style="fill:none;stroke:#bfbfbf;stroke-width:1.25;stroke-linecap:butt;stroke-linejoin:miter;stroke-miterlimit:3.8;stroke-dasharray:5, 10;stroke-dashoffset:0;stroke-opacity:1"
         id="path24881" />
      <path
         d="m 392,256 h 31.5 m 3967,0 H 4359"
         style="fill:none;stroke:#000000;stroke-width:2.5;stroke-linecap:butt;stroke-linejoin:miter;stroke-miterlimit:3.8;stroke-dasharray:none;stroke-opacity:1"
         id="path24883" />
      <g
         id="g24885"
         transform="scale(10)">
        <text
           xml:space="preserve"
           transform="matrix(1,0,0,-1,24.4,22.9352)"
           style="font-variant:normal;font-weight:normal;font-size:8px;font-family:Times;-inkscape-font-specification:Times-Roman;writing-mode:lr-tb;fill:#000000;fill-opacity:1;fill-rule:nonzero;stroke:none"
           id="text24889"><tspan
             x="0 4 6"
             y="0"
             sodipodi:role="line"
             id="tspan24887">0.6</tspan></text>
      </g>
      <path
         d="M 392,533 H 4390.5"
         style="fill:none;stroke:#bfbfbf;stroke-width:1.25;stroke-linecap:butt;stroke-linejoin:miter;stroke-miterlimit:3.8;stroke-dasharray:5, 10;stroke-dashoffset:0;stroke-opacity:1"
         id="path24891" />
      <path
         d="m 392,533 h 31.5 m 3967,0 H 4359"
         style="fill:none;stroke:#000000;stroke-width:2.5;stroke-linecap:butt;stroke-linejoin:miter;stroke-miterlimit:3.8;stroke-dasharray:none;stroke-opacity:1"
         id="path24893" />
      <g
         id="g24895"
         transform="scale(10)">
        <text
           xml:space="preserve"
           transform="matrix(1,0,0,-1,24.4,50.6352)"
           style="font-variant:normal;font-weight:normal;font-size:8px;font-family:Times;-inkscape-font-specification:Times-Roman;writing-mode:lr-tb;fill:#000000;fill-opacity:1;fill-rule:nonzero;stroke:none"
           id="text24899"><tspan
             x="0 4 6"
             y="0"
             sodipodi:role="line"
             id="tspan24897">0.8</tspan></text>
      </g>
      <path
         d="M 392,809.5 H 4390.5"
         style="fill:none;stroke:#bfbfbf;stroke-width:1.25;stroke-linecap:butt;stroke-linejoin:miter;stroke-miterlimit:3.8;stroke-dasharray:5, 10;stroke-dashoffset:0;stroke-opacity:1"
         id="path24901" />
      <path
         d="m 392,809.5 h 31.5 m 3967,0 H 4359"
         style="fill:none;stroke:#000000;stroke-width:2.5;stroke-linecap:butt;stroke-linejoin:miter;stroke-miterlimit:3.8;stroke-dasharray:none;stroke-opacity:1"
         id="path24903" />
      <g
         id="g24905"
         transform="scale(10)">
        <text
           xml:space="preserve"
           transform="matrix(1,0,0,-1,30.4,78.2852)"
           style="font-variant:normal;font-weight:normal;font-size:8px;font-family:Times;-inkscape-font-specification:Times-Roman;writing-mode:lr-tb;fill:#000000;fill-opacity:1;fill-rule:nonzero;stroke:none"
           id="text24909"><tspan
             x="0"
             y="0"
             id="tspan24907">1</tspan></text>
      </g>
      <path
         d="M 392,1086.5 H 4390.5"
         style="fill:none;stroke:#bfbfbf;stroke-width:1.25;stroke-linecap:butt;stroke-linejoin:miter;stroke-miterlimit:3.8;stroke-dasharray:5, 10;stroke-dashoffset:0;stroke-opacity:1"
         id="path24911" />
      <path
         d="m 392,1086.5 h 31.5 m 3967,0 H 4359"
         style="fill:none;stroke:#000000;stroke-width:2.5;stroke-linecap:butt;stroke-linejoin:miter;stroke-miterlimit:3.8;stroke-dasharray:none;stroke-opacity:1"
         id="path24913" />
      <g
         id="g24915"
         transform="scale(10)">
        <text
           xml:space="preserve"
           transform="matrix(1,0,0,-1,24.4,105.985)"
           style="font-variant:normal;font-weight:normal;font-size:8px;font-family:Times;-inkscape-font-specification:Times-Roman;writing-mode:lr-tb;fill:#000000;fill-opacity:1;fill-rule:nonzero;stroke:none"
           id="text24919"><tspan
             x="0 4 6"
             y="0"
             sodipodi:role="line"
             id="tspan24917">1.2</tspan></text>
      </g>
      <path
         d="M 392,1363.5 H 4390.5"
         style="fill:none;stroke:#bfbfbf;stroke-width:1.25;stroke-linecap:butt;stroke-linejoin:miter;stroke-miterlimit:3.8;stroke-dasharray:5, 10;stroke-dashoffset:0;stroke-opacity:1"
         id="path24921" />
      <path
         d="m 392,1363.5 h 31.5 m 3967,0 H 4359"
         style="fill:none;stroke:#000000;stroke-width:2.5;stroke-linecap:butt;stroke-linejoin:miter;stroke-miterlimit:3.8;stroke-dasharray:none;stroke-opacity:1"
         id="path24923" />
      <g
         id="g24925"
         transform="scale(10)">
        <text
           xml:space="preserve"
           transform="matrix(1,0,0,-1,24.4,133.685)"
           style="font-variant:normal;font-weight:normal;font-size:8px;font-family:Times;-inkscape-font-specification:Times-Roman;writing-mode:lr-tb;fill:#000000;fill-opacity:1;fill-rule:nonzero;stroke:none"
           id="text24929"><tspan
             x="0 4 6"
             y="0"
             sodipodi:role="line"
             id="tspan24927">1.4</tspan></text>
      </g>
      <path
         d="M 392,1640 H 4390.5"
         style="fill:none;stroke:#bfbfbf;stroke-width:1.25;stroke-linecap:butt;stroke-linejoin:miter;stroke-miterlimit:3.8;stroke-dasharray:5, 10;stroke-dashoffset:0;stroke-opacity:1"
         id="path24931" />
      <path
         d="m 392,1640 h 31.5 m 3967,0 H 4359"
         style="fill:none;stroke:#000000;stroke-width:2.5;stroke-linecap:butt;stroke-linejoin:miter;stroke-miterlimit:3.8;stroke-dasharray:none;stroke-opacity:1"
         id="path24933" />
      <g
         id="g24935"
         transform="scale(10)">
        <text
           xml:space="preserve"
           transform="matrix(1,0,0,-1,24.4,161.335)"
           style="font-variant:normal;font-weight:normal;font-size:8px;font-family:Times;-inkscape-font-specification:Times-Roman;writing-mode:lr-tb;fill:#000000;fill-opacity:1;fill-rule:nonzero;stroke:none"
           id="text24939"><tspan
             x="0 4 6"
             y="0"
             sodipodi:role="line"
             id="tspan24937">1.6</tspan></text>
      </g>
      <path
         d="M 392,1917 H 4390.5"
         style="fill:none;stroke:#bfbfbf;stroke-width:1.25;stroke-linecap:butt;stroke-linejoin:miter;stroke-miterlimit:3.8;stroke-dasharray:5, 10;stroke-dashoffset:0;stroke-opacity:1"
         id="path24941" />
      <path
         d="m 392,1917 h 31.5 m 3967,0 H 4359"
         style="fill:none;stroke:#000000;stroke-width:2.5;stroke-linecap:butt;stroke-linejoin:miter;stroke-miterlimit:3.8;stroke-dasharray:none;stroke-opacity:1"
         id="path24943" />
      <g
         id="g24945"
         transform="scale(10)">
        <text
           xml:space="preserve"
           transform="matrix(1,0,0,-1,24.4,189.035)"
           style="font-variant:normal;font-weight:normal;font-size:8px;font-family:Times;-inkscape-font-specification:Times-Roman;writing-mode:lr-tb;fill:#000000;fill-opacity:1;fill-rule:nonzero;stroke:none"
           id="text24949"><tspan
             x="0 4 6"
             y="0"
             sodipodi:role="line"
             id="tspan24947">1.8</tspan></text>
      </g>
      <path
         d="M 392,2193.5 H 4390.5"
         style="fill:none;stroke:#bfbfbf;stroke-width:1.25;stroke-linecap:butt;stroke-linejoin:miter;stroke-miterlimit:3.8;stroke-dasharray:5, 10;stroke-dashoffset:0;stroke-opacity:1"
         id="path24951" />
      <path
         d="m 392,2193.5 h 31.5 m 3967,0 H 4359"
         style="fill:none;stroke:#000000;stroke-width:2.5;stroke-linecap:butt;stroke-linejoin:miter;stroke-miterlimit:3.8;stroke-dasharray:none;stroke-opacity:1"
         id="path24953" />
      <g
         id="g24955"
         transform="scale(10)">
        <text
           xml:space="preserve"
           transform="matrix(1,0,0,-1,30.4,216.685)"
           style="font-variant:normal;font-weight:normal;font-size:8px;font-family:Times;-inkscape-font-specification:Times-Roman;writing-mode:lr-tb;fill:#000000;fill-opacity:1;fill-rule:nonzero;stroke:none"
           id="text24959"><tspan
             x="0"
             y="0"
             id="tspan24957">2</tspan></text>
      </g>
      <path
         d="M 392,2470.5 H 4390.5"
         style="fill:none;stroke:#bfbfbf;stroke-width:1.25;stroke-linecap:butt;stroke-linejoin:miter;stroke-miterlimit:3.8;stroke-dasharray:5, 10;stroke-dashoffset:0;stroke-opacity:1"
         id="path24961" />
      <path
         d="m 392,2470.5 h 31.5 m 3967,0 H 4359"
         style="fill:none;stroke:#000000;stroke-width:2.5;stroke-linecap:butt;stroke-linejoin:miter;stroke-miterlimit:3.8;stroke-dasharray:none;stroke-opacity:1"
         id="path24963" />
      <g
         id="g24965"
         transform="scale(10)">
        <text
           xml:space="preserve"
           transform="matrix(1,0,0,-1,24.4,244.385)"
           style="font-variant:normal;font-weight:normal;font-size:8px;font-family:Times;-inkscape-font-specification:Times-Roman;writing-mode:lr-tb;fill:#000000;fill-opacity:1;fill-rule:nonzero;stroke:none"
           id="text24969"><tspan
             x="0 4 6"
             y="0"
             sodipodi:role="line"
             id="tspan24967">2.2</tspan></text>
      </g>
      <path
         d="M 392,256 V 2470.5"
         style="fill:none;stroke:#bfbfbf;stroke-width:1.25;stroke-linecap:butt;stroke-linejoin:miter;stroke-miterlimit:3.8;stroke-dasharray:5, 10;stroke-dashoffset:0;stroke-opacity:1"
         id="path24971" />
      <path
         d="m 392,256 v 31.5 m 0,2183 V 2439"
         style="fill:none;stroke:#000000;stroke-width:2.5;stroke-linecap:butt;stroke-linejoin:miter;stroke-miterlimit:3.8;stroke-dasharray:none;stroke-opacity:1"
         id="path24973" />
      <g
         id="g24975"
         transform="scale(10)">
        <text
           xml:space="preserve"
           transform="matrix(1,0,0,-1,38.2,14.9352)"
           style="font-variant:normal;font-weight:normal;font-size:8px;font-family:Times;-inkscape-font-specification:Times-Roman;writing-mode:lr-tb;fill:#000000;fill-opacity:1;fill-rule:nonzero;stroke:none"
           id="text24979"><tspan
             x="0"
             y="0"
             id="tspan24977">0</tspan></text>
      </g>
      <path
         d="M 892,256 V 2470.5"
         style="fill:none;stroke:#bfbfbf;stroke-width:1.25;stroke-linecap:butt;stroke-linejoin:miter;stroke-miterlimit:3.8;stroke-dasharray:5, 10;stroke-dashoffset:0;stroke-opacity:1"
         id="path24981" />
      <path
         d="m 892,256 v 31.5 m 0,2183 V 2439"
         style="fill:none;stroke:#000000;stroke-width:2.5;stroke-linecap:butt;stroke-linejoin:miter;stroke-miterlimit:3.8;stroke-dasharray:none;stroke-opacity:1"
         id="path24983" />
      <g
         id="g24985"
         transform="scale(10)">
        <text
           xml:space="preserve"
           transform="matrix(1,0,0,-1,86.2,14.9352)"
           style="font-variant:normal;font-weight:normal;font-size:8px;font-family:Times;-inkscape-font-specification:Times-Roman;writing-mode:lr-tb;fill:#000000;fill-opacity:1;fill-rule:nonzero;stroke:none"
           id="text24989"><tspan
             x="0 4"
             y="0"
             sodipodi:role="line"
             id="tspan24987">20</tspan></text>
      </g>
      <path
         d="M 1391.5,256 V 2470.5"
         style="fill:none;stroke:#bfbfbf;stroke-width:1.25;stroke-linecap:butt;stroke-linejoin:miter;stroke-miterlimit:3.8;stroke-dasharray:5, 10;stroke-dashoffset:0;stroke-opacity:1"
         id="path24991" />
      <path
         d="m 1391.5,256 v 31.5 m 0,2183 V 2439"
         style="fill:none;stroke:#000000;stroke-width:2.5;stroke-linecap:butt;stroke-linejoin:miter;stroke-miterlimit:3.8;stroke-dasharray:none;stroke-opacity:1"
         id="path24993" />
      <g
         id="g24995"
         transform="scale(10)">
        <text
           xml:space="preserve"
           transform="matrix(1,0,0,-1,136.15,14.9352)"
           style="font-variant:normal;font-weight:normal;font-size:8px;font-family:Times;-inkscape-font-specification:Times-Roman;writing-mode:lr-tb;fill:#000000;fill-opacity:1;fill-rule:nonzero;stroke:none"
           id="text24999"><tspan
             x="0 4"
             y="0"
             sodipodi:role="line"
             id="tspan24997">40</tspan></text>
      </g>
      <path
         d="M 1891.5,256 V 2470.5"
         style="fill:none;stroke:#bfbfbf;stroke-width:1.25;stroke-linecap:butt;stroke-linejoin:miter;stroke-miterlimit:3.8;stroke-dasharray:5, 10;stroke-dashoffset:0;stroke-opacity:1"
         id="path25001" />
      <path
         d="m 1891.5,256 v 31.5 m 0,2183 V 2439"
         style="fill:none;stroke:#000000;stroke-width:2.5;stroke-linecap:butt;stroke-linejoin:miter;stroke-miterlimit:3.8;stroke-dasharray:none;stroke-opacity:1"
         id="path25003" />
      <g
         id="g25005"
         transform="scale(10)">
        <text
           xml:space="preserve"
           transform="matrix(1,0,0,-1,186.15,14.9352)"
           style="font-variant:normal;font-weight:normal;font-size:8px;font-family:Times;-inkscape-font-specification:Times-Roman;writing-mode:lr-tb;fill:#000000;fill-opacity:1;fill-rule:nonzero;stroke:none"
           id="text25009"><tspan
             x="0 4"
             y="0"
             sodipodi:role="line"
             id="tspan25007">60</tspan></text>
      </g>
      <path
         d="M 2391.5,256 V 2470.5"
         style="fill:none;stroke:#bfbfbf;stroke-width:1.25;stroke-linecap:butt;stroke-linejoin:miter;stroke-miterlimit:3.8;stroke-dasharray:5, 10;stroke-dashoffset:0;stroke-opacity:1"
         id="path25011" />
      <path
         d="m 2391.5,256 v 31.5 m 0,2183 V 2439"
         style="fill:none;stroke:#000000;stroke-width:2.5;stroke-linecap:butt;stroke-linejoin:miter;stroke-miterlimit:3.8;stroke-dasharray:none;stroke-opacity:1"
         id="path25013" />
      <g
         id="g25015"
         transform="scale(10)">
        <text
           xml:space="preserve"
           transform="matrix(1,0,0,-1,236.15,14.9352)"
           style="font-variant:normal;font-weight:normal;font-size:8px;font-family:Times;-inkscape-font-specification:Times-Roman;writing-mode:lr-tb;fill:#000000;fill-opacity:1;fill-rule:nonzero;stroke:none"
           id="text25019"><tspan
             x="0 4"
             y="0"
             sodipodi:role="line"
             id="tspan25017">80</tspan></text>
      </g>
      <path
         d="M 2891,256 V 2470.5"
         style="fill:none;stroke:#bfbfbf;stroke-width:1.25;stroke-linecap:butt;stroke-linejoin:miter;stroke-miterlimit:3.8;stroke-dasharray:5, 10;stroke-dashoffset:0;stroke-opacity:1"
         id="path25021" />
      <path
         d="m 2891,256 v 31.5 m 0,2183 V 2439"
         style="fill:none;stroke:#000000;stroke-width:2.5;stroke-linecap:butt;stroke-linejoin:miter;stroke-miterlimit:3.8;stroke-dasharray:none;stroke-opacity:1"
         id="path25023" />
      <g
         id="g25025"
         transform="scale(10)">
        <text
           xml:space="preserve"
           transform="matrix(1,0,0,-1,284.1,14.9352)"
           style="font-variant:normal;font-weight:normal;font-size:8px;font-family:Times;-inkscape-font-specification:Times-Roman;writing-mode:lr-tb;fill:#000000;fill-opacity:1;fill-rule:nonzero;stroke:none"
           id="text25029"><tspan
             x="0 4 8"
             y="0"
             sodipodi:role="line"
             id="tspan25027">100</tspan></text>
      </g>
      <path
         d="M 3391,256 V 2470.5"
         style="fill:none;stroke:#bfbfbf;stroke-width:1.25;stroke-linecap:butt;stroke-linejoin:miter;stroke-miterlimit:3.8;stroke-dasharray:5, 10;stroke-dashoffset:0;stroke-opacity:1"
         id="path25031" />
      <path
         d="m 3391,256 v 31.5 m 0,2183 V 2439"
         style="fill:none;stroke:#000000;stroke-width:2.5;stroke-linecap:butt;stroke-linejoin:miter;stroke-miterlimit:3.8;stroke-dasharray:none;stroke-opacity:1"
         id="path25033" />
      <g
         id="g25035"
         transform="scale(10)">
        <text
           xml:space="preserve"
           transform="matrix(1,0,0,-1,334.1,14.9352)"
           style="font-variant:normal;font-weight:normal;font-size:8px;font-family:Times;-inkscape-font-specification:Times-Roman;writing-mode:lr-tb;fill:#000000;fill-opacity:1;fill-rule:nonzero;stroke:none"
           id="text25039"><tspan
             x="0 4 8"
             y="0"
             sodipodi:role="line"
             id="tspan25037">120</tspan></text>
      </g>
      <path
         d="m 3890.5,256 v 31.5 m 0,240 v 1943"
         style="fill:none;stroke:#bfbfbf;stroke-width:1.25;stroke-linecap:butt;stroke-linejoin:miter;stroke-miterlimit:3.8;stroke-dasharray:5, 10;stroke-dashoffset:0;stroke-opacity:1"
         id="path25041" />
      <path
         d="m 3890.5,256 v 31.5 m 0,2183 V 2439"
         style="fill:none;stroke:#000000;stroke-width:2.5;stroke-linecap:butt;stroke-linejoin:miter;stroke-miterlimit:3.8;stroke-dasharray:none;stroke-opacity:1"
         id="path25043" />
      <g
         id="g25045"
         transform="scale(10)">
        <text
           xml:space="preserve"
           transform="matrix(1,0,0,-1,384.05,14.9352)"
           style="font-variant:normal;font-weight:normal;font-size:8px;font-family:Times;-inkscape-font-specification:Times-Roman;writing-mode:lr-tb;fill:#000000;fill-opacity:1;fill-rule:nonzero;stroke:none"
           id="text25049"><tspan
             x="0 4 8"
             y="0"
             sodipodi:role="line"
             id="tspan25047">140</tspan></text>
      </g>
      <path
         d="M 4390.5,256 V 2470.5"
         style="fill:none;stroke:#bfbfbf;stroke-width:1.25;stroke-linecap:butt;stroke-linejoin:miter;stroke-miterlimit:3.8;stroke-dasharray:5, 10;stroke-dashoffset:0;stroke-opacity:1"
         id="path25051" />
      <path
         d="m 4390.5,256 v 31.5 m 0,2183 V 2439"
         style="fill:none;stroke:#000000;stroke-width:2.5;stroke-linecap:butt;stroke-linejoin:miter;stroke-miterlimit:3.8;stroke-dasharray:none;stroke-opacity:1"
         id="path25053" />
      <g
         id="g25055"
         transform="scale(10)">
        <text
           xml:space="preserve"
           transform="matrix(1,0,0,-1,434.05,14.9352)"
           style="font-variant:normal;font-weight:normal;font-size:8px;font-family:Times;-inkscape-font-specification:Times-Roman;writing-mode:lr-tb;fill:#000000;fill-opacity:1;fill-rule:nonzero;stroke:none"
           id="text25059"><tspan
             x="0 4 8"
             y="0"
             sodipodi:role="line"
             id="tspan25057">160</tspan></text>
      </g>
      <path
         d="M 392,2470.5 V 256 h 3998.5 v 2214.5 z"
         style="fill:none;stroke:#000000;stroke-width:5;stroke-linecap:butt;stroke-linejoin:miter;stroke-miterlimit:3.8;stroke-dasharray:none;stroke-opacity:1"
         id="path25061" />
      <g
         id="g25063"
         transform="scale(10)">
        <text
           xml:space="preserve"
           transform="matrix(1,0,0,-1,383.86,46.0852)"
           style="font-style:italic;font-variant:normal;font-size:8px;font-family:Times;-inkscape-font-specification:Times-Italic;writing-mode:lr-tb;fill:#000000;fill-opacity:1;fill-rule:nonzero;stroke:none"
           id="text25067"><tspan
             x="0 4.888 8.4399996 10.44 14.44"
             y="0"
             sodipodi:role="line"
             id="tspan25065">Re 40</tspan></text>
      </g>
      <path
         d="m 4071,487.5 h 223.5 m -3892,1983 0.5,-909 0.5,909 m 1.5,0 0.5,-302.5 1,302.5 m 0.5,0 1,-159 1.5,107 1,-93.5 1.5,18.5 1,-36.5 1.5,-4 1,-18.5 1.5,-9 1,-12.5 1.5,-9.5 1,-10 1.5,-9 1,-9 1.5,-8.5 1,-8.5 1.5,-8 1,-8.5 1.5,-7.5 1,-8 1.5,-7.5 1,-8 1.5,-7.5 1,-7.5 1.5,-7.5 1,-7 1.5,-7.5 1,-7 1.5,-7 1,-7 1.5,-7 1,-7 1.5,-7 1,-6.5 1.5,-6.5 1,-6.5 1.5,-6.5 1,-6.5 1.5,-6 1,-6 1.5,-6.5 1,-5.5 1.5,-6 1,-6 1.5,-5.5 1,-5.5 1.5,-6 1,-5 1.5,-5.5 1,-5.5 1.5,-5 1,-5 1.5,-5 1,-5 1.5,-4.5 1,-5 1.5,-4.5 1,-4.5 1.5,-4.5 1,-4.5 1.5,-4.5 1,-4 1.5,-4.5 1,-4 1.5,-4.5 1,-4 1.5,-4 1,-3.5 1.5,-4 1,-4 1.5,-3.5 1,-3.5 1.5,-4 1,-3.5 1.5,-3.5 1,-3 1.5,-3.5 1,-3.5 1.5,-3 1,-3.5 1.5,-3 1,-3 1.5,-3.5 1,-3 1.5,-3 1,-3 1.5,-2.5 1,-3 1.5,-3 1,-2.5 1.5,-3 1,-2.5 1.5,-2.5 1,-3 1.5,-2.5 1,-2.5 1.5,-2.5 1,-2.5 1.5,-2.5 1,-2.5 1.5,-2 1,-2.5 1.5,-2.5 1,-2 1.5,-2.5 1,-2 1.5,-2.5 1,-2 1.5,-2 1,-2 1.5,-2.5 1,-2 1.5,-2 1,-2 1.5,-2 1,-1.5 1.5,-2 1,-2 1.5,-2 1,-1.5 1.5,-2 1,-2 1.5,-1.5 1,-2 1.5,-1.5 1,-2 1.5,-1.5 1,-1.5 1.5,-2 1,-1.5 1.5,-1.5 1,-1.5 1.5,-2 1,-1.5 1.5,-1.5 1,-1.5 1.5,-1.5 1,-1.5 1.5,-1.5 1,-1.5 1.5,-1 1,-1.5 1.5,-1.5 1,-1.5 1.5,-1.5 1,-1 1.5,-1.5 1,-1.5 1.5,-1 1,-1.5 1.5,-1 1,-1.5 1.5,-1 1,-1.5 1.5,-1 1,-1.5 1.5,-1 1,-1 1.5,-1.5 1,-1 1.5,-1 1,-1.5 1.5,-1 1,-1 1.5,-1 1,-1.5 1.5,-1 1,-1 1.5,-1 1,-1 1.5,-1 1,-1 1.5,-1 1,-1 1.5,-1 1,-1 1.5,-1 1,-1 1.5,-1 1,-1 1.5,-1 1,-1 1.5,-0.5 1,-1 1.5,-1 1,-1 1.5,-1 1,-0.5 1.5,-1 1,-1 1.5,-1 1,-0.5 1.5,-1 1,-1 1.5,-0.5 1,-1 1.5,-0.5 1,-1 1.5,-1 1,-0.5 1.5,-1 1,-0.5 1.5,-1 1,-0.5 1.5,-1 1,-0.5 1.5,-1 1,-0.5 1.5,-0.5 1,-1 1.5,-0.5 1,-1 1.5,-0.5 1,-0.5 1.5,-1 1,-0.5 1.5,-0.5 1,-1 1.5,-0.5 1,-0.5 1.5,-1 1,-0.5 1.5,-0.5 1,-0.5 1.5,-1 1,-0.5 1.5,-0.5 1,-0.5 1.5,-1 1,-0.5 1.5,-0.5 1,-0.5 1.5,-0.5 1,-0.5 1.5,-0.5 1,-1 1.5,-0.5 1,-0.5 1.5,-0.5 1,-0.5 1.5,-0.5 1,-0.5"
         style="fill:none;stroke:#ff0000;stroke-width:5;stroke-linecap:butt;stroke-linejoin:miter;stroke-miterlimit:3.8;stroke-dasharray:none;stroke-opacity:1"
         id="path25069" />
      <path
         d="m 708,1637 1.5,-0.5 1,-0.5 1.5,-0.5 1,-0.5 1.5,-0.5 1,-0.5 1.5,-0.5 1,-0.5 1.5,-0.5 1,-0.5 1.5,-0.5 1,-0.5 1.5,-0.5 1,-0.5 1.5,-0.5 1,-0.5 1.5,-0.5 1,-0.5 1.5,-0.5 1,-0.5 h 1.5 l 1,-0.5 1.5,-0.5 1,-0.5 1.5,-0.5 1,-0.5 1.5,-0.5 h 1 l 1.5,-0.5 1,-0.5 1.5,-0.5 1,-0.5 h 1.5 l 1,-0.5 1.5,-0.5 1,-0.5 1.5,-0.5 h 1 l 1.5,-0.5 1,-0.5 1.5,-0.5 h 1 l 1.5,-0.5 1,-0.5 h 1.5 l 1,-0.5 1.5,-0.5 h 1 l 1.5,-0.5 1,-0.5 1.5,-0.5 h 1 l 1.5,-0.5 1,-0.5 h 1.5 l 1,-0.5 h 1.5 l 1,-0.5 1.5,-0.5 h 1 l 1.5,-0.5 1,-0.5 h 1.5 l 1,-0.5 h 1.5 l 1,-0.5 1.5,-0.5 h 1 l 1.5,-0.5 h 1 l 1.5,-0.5 h 1 l 1.5,-0.5 1,-0.5 h 1.5 l 1,-0.5 h 1.5 l 1,-0.5 h 1.5 l 1,-0.5 h 1.5 l 1,-0.5 h 1.5 l 1,-0.5 h 1.5 l 1,-0.5 h 1.5 l 1,-0.5 h 1.5 l 1,-0.5 h 1.5 l 1,-0.5 h 1.5 l 1,-0.5 h 1.5 l 1,-0.5 h 1.5 l 1,-0.5 h 1.5 l 1,-0.5 h 1.5 1 l 1.5,-0.5 h 1 l 1.5,-0.5 h 1 l 1.5,-0.5 h 1 l 1.5,-0.5 h 1 l 1.5,-0.5 h 1 1.5 l 1,-0.5 h 1.5 l 1,-0.5 h 1.5 1 l 1.5,-0.5 h 1 l 1.5,-0.5 h 1 l 1.5,-0.5 h 1 1.5 l 1,-0.5 h 1.5 l 1,-0.5 h 1.5 1 l 1.5,-0.5 h 1 l 1.5,-0.5 h 1 1.5 l 1,-0.5 h 1.5 1 l 1.5,-0.5 h 1 l 1.5,-0.5 h 1 1.5 l 1,-0.5 h 1.5 1 l 1.5,-0.5 h 1 1.5 l 1,-0.5 h 1.5 l 1,-0.5 h 1.5 1 l 1.5,-0.5 h 1 1.5 l 1,-0.5 h 1.5 1 l 1.5,-0.5 h 1 1.5 l 1,-0.5 h 1.5 1 l 1.5,-0.5 h 1 1.5 1 l 1.5,-0.5 h 1 1.5 l 1,-0.5 h 1.5 1 l 1.5,-0.5 h 1 1.5 l 1,-0.5 h 1.5 1 1.5 l 1,-0.5 h 1.5 1 l 1.5,-0.5 h 1 1.5 1 l 1.5,-0.5 h 1 1.5 1 l 1.5,-0.5 h 1 1.5 l 1,-0.5 h 1.5 1 1.5 l 1,-0.5 h 1.5 1 1.5 l 1,-0.5 h 1.5 1 1.5 l 1,-0.5 h 1.5 1 1.5 l 1,-0.5 h 1.5 1 1.5 l 1,-0.5 h 1.5 1 1.5 l 1,-0.5 h 1.5 1 1.5 1 l 1.5,-0.5 h 1 1.5 1 l 1.5,-0.5 h 1 1.5 1 1.5 l 1,-0.5 h 1.5 1 1.5 l 1,-0.5 h 1.5 1 1.5 1 l 1.5,-0.5 h 1 1.5 1 1.5"
         style="fill:none;stroke:#ff0000;stroke-width:5;stroke-linecap:butt;stroke-linejoin:miter;stroke-miterlimit:3.8;stroke-dasharray:none;stroke-opacity:1"
         id="path25071" />
      <path
         d="m 1019.5,1578.5 1,-0.5 h 5 l 1.5,-0.5 h 1 1.5 1 1.5 l 1,-0.5 h 1.5 1 1.5 1 1.5 l 1,-0.5 h 1.5 1 1.5 1 l 1.5,-0.5 h 1 1.5 1 1.5 1 l 1.5,-0.5 h 1 1.5 1 1 1.5 l 1,-0.5 h 1.5 1 1.5 1 1.5 l 1,-0.5 h 1.5 1 1.5 1 1.5 l 1,-0.5 h 1.5 1 1.5 1 1.5 1 l 1.5,-0.5 h 1 1.5 1 1.5 1 l 1.5,-0.5 h 1 1.5 1 1.5 1 1.5 l 1,-0.5 h 1.5 1 1.5 1 1.5 1 l 1.5,-0.5 h 1 1.5 1 1.5 1 1.5 1 l 1.5,-0.5 h 1 1.5 1 1.5 1 1.5 1 l 1.5,-0.5 h 1 1.5 1 1.5 1 1.5 1 l 1.5,-0.5 h 1 1.5 1 1.5 1 1.5 1 l 1.5,-0.5 h 1 1.5 1 1.5 1 1.5 1 1.5 l 1,-0.5 h 1.5 1 1.5 1 1.5 1 1.5 1 l 1.5,-0.5 h 1 1.5 1 1.5 1 1.5 1 1.5 1 l 1.5,-0.5 h 1 1.5 1 1.5 1 1.5 1 1.5 1 l 1.5,-0.5 h 1 1.5 1 1.5 1 1.5 1 1.5 1 1.5 l 1,-0.5 h 1.5 1 1.5 1 1.5 1 1.5 1 1.5 1 l 1.5,-0.5 h 1 1.5 1 1.5 1 1.5 1 1.5 1 1.5 1 l 1.5,-0.5 h 1 1.5 1 1.5 1 1.5 1 1.5 1 1.5 1 1.5 l 1,-0.5 h 1.5 1 1.5 1 1.5 1 1.5 1 1.5 1 1.5 1 l 1.5,-0.5 h 1 1.5 1 1.5 1 1.5 1 1.5 1 1.5 1 1.5 1 l 1.5,-0.5 h 1 1.5 1 1.5 1 1.5 1 1.5 1 1.5 1 1.5 1 1.5 1 l 1.5,-0.5 h 1 1.5 1 1.5 1 1.5 1 1.5 1 1.5 1 1.5 1 1.5 1 l 1.5,-0.5"
         style="fill:none;stroke:#ff0000;stroke-width:5;stroke-linecap:butt;stroke-linejoin:miter;stroke-miterlimit:3.8;stroke-dasharray:none;stroke-opacity:1"
         id="path25073" />
      <path
         d="m 1330.5,1564 h 21 l 1.5,-0.5 h 23.5 l 1.5,-0.5 h 1 1.5 1 1.5 1 1.5 1 1.5 1 1.5 1 1.5 1 1.5 1 1.5 1 1.5 1 1.5 1 l 1.5,-0.5 h 1 1.5 1 1.5 1 1.5 1 1.5 1 1.5 1 1.5 1 1.5 1 1.5 1 1.5 1 1.5 1 1.5 1 l 1.5,-0.5 h 1 1.5 1 1.5 1 1.5 1 1.5 1 1.5 1 1.5 1 1.5 1 1.5 1 1.5 1 1.5 1 1.5 1 1.5 1 1.5 l 1,-0.5 h 1.5 1 1.5 1 1.5 1 1.5 1 1.5 1 1.5 1 1.5 1 1.5 1 1.5 1 1.5 1 1.5 1 1.5 1 1.5 1 1.5 1 1.5 1 l 1.5,-0.5 h 1 1.5 1 1.5 1 1.5 1 1.5 1 1.5 1 1.5 1 1.5 1 1.5 1 1.5 1 1.5 1 1.5 1 1.5 1 1.5 1 1.5 1 1.5 1 1.5 1 1.5 l 1,-0.5 h 1.5 1 1.5 1 1.5 1 1.5 1 1.5 1 1.5 1 1.5 1 1.5 1 1.5 1 1.5 1 1.5 1 1.5 1 1.5 1 1.5 1 1.5 1 1.5 1 1.5 1 1.5 1 1.5 1 1.5 1 1.5 l 1,-0.5 h 1.5 1 1.5 1 1.5 1 1.5 1 1.5 1 1.5 1 1.5 1 1.5 1 1.5 1 1.5 1 1.5 1 1.5 1 1.5 1 1.5 1 1.5 1"
         style="fill:none;stroke:#ff0000;stroke-width:5;stroke-linecap:butt;stroke-linejoin:miter;stroke-miterlimit:3.8;stroke-dasharray:none;stroke-opacity:1"
         id="path25075" />
      <path
         d="m 1641.5,1560 h 24 l 1,-0.5 h 80 l 1,-0.5 h 1.5 1 1.5 1 1.5 1 1.5 1 1.5 1 1.5 1 1.5 1 1.5 1 1.5 1 1.5 1 1.5 1 1.5 1 1.5 1 1.5 1 1.5 1 1.5 1 1.5 1 1.5 1 1.5 1 1.5 1 1.5 1 1.5 1 1.5 1 1.5 1 1.5 1 1.5 1 1.5 1 1.5 1 1.5 1 1.5 1 1.5 1 1.5 1 1.5 1 1.5 1 1.5 1 1.5 1 1.5 1 1.5 1 1.5 1 1.5 1 1.5 1 1.5 1 1.5 1 l 1.5,-0.5 h 1 1.5 1 1.5 1 1.5 1 1.5 1 1.5 1 1.5 1 1.5 1 1.5 1 1.5 1 1.5 1 1.5 1 1.5 1 1.5 1 1.5 1 1.5 1 1.5 1 1.5 1 1.5 1 1.5 1 1.5 1 1.5 1 1.5 1 1.5 1 1.5 1 1.5 1 1.5 1 1.5 1 1.5 1 1.5 1 1.5 1 1.5 1 1.5 1 1.5 1 1.5 1 1.5 1 1.5 1 1.5 1 1.5 1"
         style="fill:none;stroke:#ff0000;stroke-width:5;stroke-linecap:butt;stroke-linejoin:miter;stroke-miterlimit:3.8;stroke-dasharray:none;stroke-opacity:1"
         id="path25077" />
      <path
         d="m 1952.5,1558.5 h 81.5 l 1,-0.5 h 229"
         style="fill:none;stroke:#ff0000;stroke-width:5;stroke-linecap:butt;stroke-linejoin:miter;stroke-miterlimit:3.8;stroke-dasharray:none;stroke-opacity:1"
         id="path25079" />
      <path
         d="m 2264,1558 h 207 l 1.5,-0.5 H 2575"
         style="fill:none;stroke:#ff0000;stroke-width:5;stroke-linecap:butt;stroke-linejoin:miter;stroke-miterlimit:3.8;stroke-dasharray:none;stroke-opacity:1"
         id="path25081" />
      <path
         d="m 2575,1557.5 h 311"
         style="fill:none;stroke:#ff0000;stroke-width:5;stroke-linecap:butt;stroke-linejoin:miter;stroke-miterlimit:3.8;stroke-dasharray:none;stroke-opacity:1"
         id="path25083" />
      <path
         d="m 2886,1557.5 h 311"
         style="fill:none;stroke:#ff0000;stroke-width:5;stroke-linecap:butt;stroke-linejoin:miter;stroke-miterlimit:3.8;stroke-dasharray:none;stroke-opacity:1"
         id="path25085" />
      <path
         d="m 3197,1557.5 h 311.5"
         style="fill:none;stroke:#ff0000;stroke-width:5;stroke-linecap:butt;stroke-linejoin:miter;stroke-miterlimit:3.8;stroke-dasharray:none;stroke-opacity:1"
         id="path25087" />
      <path
         d="m 3508.5,1557.5 h 311"
         style="fill:none;stroke:#ff0000;stroke-width:5;stroke-linecap:butt;stroke-linejoin:miter;stroke-miterlimit:3.8;stroke-dasharray:none;stroke-opacity:1"
         id="path25089" />
      <path
         d="m 3819.5,1557.5 h 311"
         style="fill:none;stroke:#ff0000;stroke-width:5;stroke-linecap:butt;stroke-linejoin:miter;stroke-miterlimit:3.8;stroke-dasharray:none;stroke-opacity:1"
         id="path25091" />
      <path
         d="m 4130.5,1557.5 h 260"
         style="fill:none;stroke:#ff0000;stroke-width:5;stroke-linecap:butt;stroke-linejoin:miter;stroke-miterlimit:3.8;stroke-dasharray:none;stroke-opacity:1"
         id="path25093" />
      <g
         id="g25095"
         transform="scale(10)">
        <text
           xml:space="preserve"
           transform="matrix(1,0,0,-1,379.86,38.0852)"
           style="font-style:italic;font-variant:normal;font-size:8px;font-family:Times;-inkscape-font-specification:Times-Italic;writing-mode:lr-tb;fill:#000000;fill-opacity:1;fill-rule:nonzero;stroke:none"
           id="text25099"><tspan
             x="0 4.888 8.4399996 10.44 14.44 18.440001"
             y="0"
             sodipodi:role="line"
             id="tspan25097">Re 100</tspan></text>
      </g>
      <path
         d="m 4071,407.5 h 223.5 M 402,2470.5 403,486 l 1.5,1554 1,-860.5 1.5,462 1,-246.5 1.5,139 1,-64.5 1.5,46.5 1,-12 1.5,19 1,2 1.5,11 1,4.5 1.5,7.5 1,4 1.5,4.5 1,3 1.5,2.5 1,1.5 h 1.5 1 l 1.5,-1 1,-2 1.5,-2 1,-3 1.5,-3.5 1,-4.5 1.5,-4 1,-4.5 1.5,-5 1,-5.5 1.5,-5.5 1,-5.5 1.5,-6 1,-6 1.5,-6 1,-6 1.5,-6 1,-6.5 1.5,-6 1,-6 1.5,-6 1,-6 1.5,-6 1,-6 1.5,-5.5 1,-6 1.5,-5.5 1,-5.5 1.5,-6 1,-5 1.5,-5.5 1,-5.5 1.5,-5 1,-5 1.5,-5 1,-5 1.5,-4.5 1,-5 1.5,-4.5 1,-4.5 1.5,-4.5 1,-4.5 1.5,-4 1,-4.5 1.5,-4 1,-4.5 1.5,-4 1,-4 1.5,-3.5 1,-4 1.5,-3.5 1,-4 1.5,-3.5 1,-3.5 1.5,-3.5 1,-3.5 1.5,-3.5 1,-3.5 1.5,-3 1,-3.5 1.5,-3 1,-3 1.5,-3.5 1,-3 1.5,-3 1,-3 1.5,-3 1,-2.5 1.5,-3 1,-3 1.5,-2.5 1,-3 1.5,-2.5 1,-2.5 1.5,-2.5 1,-2.5 1.5,-3 1,-2.5 1.5,-2 1,-2.5 1.5,-2.5 1,-2.5 1.5,-2.5 1,-2 1.5,-2.5 1,-2 1.5,-2.5 1,-2 1.5,-2 1,-2.5 1.5,-2 1,-2 1.5,-2 1,-2 1.5,-2 1,-2 1.5,-2 1,-2 1.5,-2 1,-2 1.5,-1.5 1,-2 1.5,-2 1,-1.5 1.5,-2 1,-1.5 1.5,-2 1,-1.5 1.5,-2 1,-1.5 1.5,-1.5 1,-2 1.5,-1.5 1,-1.5 1.5,-1.5 1,-1.5 1.5,-2 1,-1.5 1.5,-1.5 1,-1.5 1.5,-1.5 1,-1.5 1.5,-1.5 1,-1 1.5,-1.5 1,-1.5 1.5,-1.5 1,-1.5 1.5,-1 1,-1.5 1.5,-1.5 1,-1.5 1.5,-1 1,-1.5 1.5,-1 1,-1.5 1.5,-1 1,-1.5 1.5,-1 1,-1.5 1.5,-1 1,-1.5 1.5,-1 1,-1 1.5,-1.5 1,-1 1.5,-1 1,-1.5 1.5,-1 1,-1 1.5,-1 1,-1 1.5,-1.5 1,-1 1.5,-1 1,-1 1.5,-1 1,-1 1.5,-1 1,-1 1.5,-1 1,-1 1.5,-1 1,-1 1.5,-1 1,-1 1.5,-1 1,-1 1.5,-0.5 1,-1 1.5,-1 1,-1 1.5,-1 1,-0.5 1.5,-1 1,-1 1.5,-1 1,-0.5 1.5,-1 1,-1 1.5,-0.5 1,-1 1.5,-1 1,-0.5 1.5,-1 1,-1 1.5,-0.5 1,-1 1.5,-0.5 1,-1 1.5,-0.5 1,-1 1.5,-0.5 1,-1 1.5,-0.5 1,-1 1.5,-0.5 1,-1 1.5,-0.5 1,-1 1.5,-0.5 1,-0.5 1.5,-1 1,-0.5 1.5,-1 1,-0.5 1.5,-0.5 1,-1 1.5,-0.5 1,-0.5 1.5,-0.5 1,-1 1.5,-0.5 1,-0.5 1.5,-1 1,-0.5 1.5,-0.5 1,-0.5 1.5,-1 1,-0.5 1.5,-0.5 1,-0.5 1.5,-0.5 1,-0.5 1.5,-1 1,-0.5 1.5,-0.5 1,-0.5 1.5,-0.5"
         style="fill:none;stroke:#0000ff;stroke-width:5;stroke-linecap:butt;stroke-linejoin:miter;stroke-miterlimit:3.8;stroke-dasharray:none;stroke-opacity:1"
         id="path25101" />
      <path
         d="m 714.5,1052.5 1,-0.5 1.5,-0.5 1,-1 1.5,-0.5 1,-0.5 1.5,-0.5 1,-0.5 1.5,-0.5 1,-0.5 1.5,-0.5 1,-0.5 1.5,-0.5 1,-0.5 1.5,-0.5 1,-0.5 1.5,-0.5 1,-0.5 1.5,-0.5 1,-0.5 1.5,-0.5 1,-0.5 1.5,-0.5 1,-0.5 1.5,-0.5 1,-0.5 1.5,-0.5 1,-0.5 h 1.5 l 1,-0.5 1.5,-0.5 1,-0.5 1.5,-0.5 1,-0.5 1.5,-0.5 1,-0.5 1.5,-0.5 h 1 l 1.5,-0.5 1,-0.5 1.5,-0.5 1,-0.5 1.5,-0.5 h 1 l 1.5,-0.5 1,-0.5 1.5,-0.5 1,-0.5 h 1.5 l 1,-0.5 1.5,-0.5 1,-0.5 1.5,-0.5 h 1 l 1.5,-0.5 1,-0.5 1.5,-0.5 h 1 l 1.5,-0.5 1,-0.5 h 1.5 l 1,-0.5 1.5,-0.5 1,-0.5 h 1.5 l 1,-0.5 1.5,-0.5 h 1 l 1.5,-0.5 1,-0.5 h 1.5 l 1,-0.5 1.5,-0.5 1,-0.5 h 1.5 l 1,-0.5 h 1.5 l 1,-0.5 1.5,-0.5 h 1 l 1.5,-0.5 1,-0.5 h 1.5 l 1,-0.5 1.5,-0.5 h 1 l 1.5,-0.5 h 1 l 1.5,-0.5 1,-0.5 h 1.5 l 1,-0.5 1.5,-0.5 h 1 l 1.5,-0.5 h 1 l 1.5,-0.5 h 1 l 1.5,-0.5 1,-0.5 h 1.5 l 1,-0.5 h 1.5 l 1,-0.5 1.5,-0.5 h 1 l 1.5,-0.5 h 1 l 1.5,-0.5 h 1 l 1.5,-0.5 1,-0.5 h 1.5 l 1,-0.5 h 1.5 l 1,-0.5 h 1.5 l 1,-0.5 h 1.5 l 1,-0.5 h 1.5 l 1,-0.5 1.5,-0.5 h 1 l 1.5,-0.5 h 1 l 1.5,-0.5 h 1 l 1.5,-0.5 h 1 l 1.5,-0.5 h 1 l 1.5,-0.5 h 1 l 1.5,-0.5 h 1 l 1.5,-0.5 h 1 l 1.5,-0.5 h 1 l 1.5,-0.5 h 1 l 1.5,-0.5 h 1 l 1.5,-0.5 h 1 l 1.5,-0.5 h 1 l 1.5,-0.5 h 1 L 902,999 h 1 1.5 l 1,-0.5 h 1.5 l 1,-0.5 h 1.5 l 1,-0.5 h 1.5 l 1,-0.5 h 1.5 l 1,-0.5 h 1.5 1 l 1.5,-0.5 h 1 l 1.5,-0.5 h 1 l 1.5,-0.5 h 1 l 1.5,-0.5 h 1 1.5 l 1,-0.5 h 1.5 l 1,-0.5 h 1.5 1 L 937,993 h 1 l 1.5,-0.5 h 1 L 942,992 h 1 1.5 l 1,-0.5 h 1.5 l 1,-0.5 h 1.5 1 l 1.5,-0.5 h 1 l 1.5,-0.5 h 1 1.5 l 1,-0.5 h 1.5 1 L 962,989 h 1 l 1.5,-0.5 h 1 1.5 l 1,-0.5 h 1.5 1 l 1.5,-0.5 h 1 l 1.5,-0.5 h 1 1.5 l 1,-0.5 h 1.5 1 L 982,986 h 1 1.5 l 1,-0.5 h 1.5 1 l 1.5,-0.5 h 1 l 1.5,-0.5 h 1 1.5 l 1,-0.5 h 1.5 1 l 1.5,-0.5 h 1 1.5 l 1,-0.5 h 1.5 1 l 1.5,-0.5 h 1 1.5 l 1,-0.5 h 1.5 1 l 1.5,-0.5 h 1 1.5 1 l 1.5,-0.5 h 1 1.5 l 1,-0.5 h 1.5 1"
         style="fill:none;stroke:#0000ff;stroke-width:5;stroke-linecap:butt;stroke-linejoin:miter;stroke-miterlimit:3.8;stroke-dasharray:none;stroke-opacity:1"
         id="path25103" />
      <path
         d="m 1025.5,980.5 1.5,-0.5 h 2.5 l 1,-0.5 h 1.5 1 1.5 l 1,-0.5 h 1.5 1 l 1.5,-0.5 h 1 1.5 l 1,-0.5 h 1.5 1 1.5 l 1,-0.5 h 1.5 1 l 1.5,-0.5 h 1 1.5 1 l 1.5,-0.5 h 1 1 l 1.5,-0.5 h 1 1.5 1 l 1.5,-0.5 h 1 1.5 1 l 1.5,-0.5 h 1 1.5 l 1,-0.5 h 1.5 1 1.5 l 1,-0.5 h 1.5 1 1.5 l 1,-0.5 h 1.5 1 1.5 l 1,-0.5 h 1.5 1 1.5 l 1,-0.5 h 1.5 1 1.5 l 1,-0.5 h 1.5 1 1.5 l 1,-0.5 h 1.5 1 1.5 l 1,-0.5 h 1.5 1 1.5 l 1,-0.5 h 1.5 1 1.5 l 1,-0.5 h 1.5 1 1.5 1 l 1.5,-0.5 h 1 1.5 1 l 1.5,-0.5 h 1 1.5 1 1.5 l 1,-0.5 h 1.5 1 1.5 l 1,-0.5 h 1.5 1 1.5 1 l 1.5,-0.5 h 1 1.5 1 1.5 l 1,-0.5 h 1.5 1 1.5 1 l 1.5,-0.5 h 1 1.5 1 1.5 l 1,-0.5 h 1.5 1 1.5 1 l 1.5,-0.5 h 1 1.5 1 1.5 l 1,-0.5 h 1.5 1 1.5 1 l 1.5,-0.5 h 1 1.5 1 1.5 l 1,-0.5 h 1.5 1 1.5 1 1.5 l 1,-0.5 h 1.5 1 1.5 1 l 1.5,-0.5 h 1 1.5 1 1.5 1 l 1.5,-0.5 h 1 1.5 1 1.5 1 l 1.5,-0.5 h 1 1.5 1 1.5 1 l 1.5,-0.5 h 1 1.5 1 1.5 1 l 1.5,-0.5 h 1 1.5 1 1.5 1 1.5 l 1,-0.5 h 1.5 1 1.5 1 1.5 1 l 1.5,-0.5 h 1 1.5 1 1.5 1 1.5 l 1,-0.5 h 1.5 1 1.5 1 1.5 1 l 1.5,-0.5 h 1 1.5 1 1.5 1 1.5 l 1,-0.5 h 1.5 1 1.5 1 1.5 1 1.5 l 1,-0.5 h 1.5 1 1.5 1 1.5 1 1.5 l 1,-0.5 h 1.5 1 1.5 1 1.5 1 1.5 1 l 1.5,-0.5 h 1 1.5 1 1.5 1 1.5 1 1.5 l 1,-0.5 h 1.5 1 1.5 1 1.5 1 1.5 1 1.5 l 1,-0.5 h 1.5 1"
         style="fill:none;stroke:#0000ff;stroke-width:5;stroke-linecap:butt;stroke-linejoin:miter;stroke-miterlimit:3.8;stroke-dasharray:none;stroke-opacity:1"
         id="path25105" />
      <path
         d="m 1336.5,956 h 11.5 l 1,-0.5 h 15 l 1.5,-0.5 h 1 1.5 1 1.5 1 1.5 1 1.5 1 1.5 1 1.5 1 1.5 1 l 1.5,-0.5 h 1 1.5 1 1.5 1 1.5 1 1.5 1 1.5 1 1.5 1 1.5 1 1.5 1 1.5 1 1.5 1 1.5 1 1.5 1 1.5 1 1.5 1 1.5 1 1.5 1 1.5 1 1.5 1 1.5 1 1.5 1 1.5 1 1.5 1 1.5 1 1.5 1 1.5 1 1.5 1 1.5 1 1.5 1 1.5 1 1.5 1 1.5 1 1.5 1 l 1.5,0.5 h 1 1.5 1 1.5 1 1.5 1 1.5 1 1.5 1 1.5 1 l 1.5,0.5 h 1 1.5 1 1.5 1 1.5 1 1.5 l 1,0.5 h 1.5 1 1.5 1 1.5 1 1.5 l 1,0.5 h 1.5 1 1.5 1 1.5 l 1,0.5 h 1.5 1 1.5 1 1.5 l 1,0.5 h 1.5 1 1.5 1 l 1.5,0.5 h 1 1.5 1 1.5 l 1,0.5 h 1.5 1 1.5 1 l 1.5,0.5 h 1 1.5 1 l 1.5,0.5 h 1 1.5 1 l 1.5,0.5 h 1 1.5 l 1,0.5 h 1.5 1 1.5 l 1,0.5 h 1.5 1 1.5 l 1,0.5 h 1.5 1 l 1.5,0.5 h 1 1.5 l 1,0.5 h 1.5 1 l 1.5,0.5 h 1 1.5 l 1,0.5 h 1.5 1 l 1.5,0.5 h 1 1.5 l 1,0.5 h 1.5 l 1,0.5 h 1.5 1 l 1.5,0.5 h 1 l 1.5,0.5 h 1 l 1.5,0.5 h 1 1.5 l 1,0.5 h 1.5 l 1,0.5 h 1.5 l 1,0.5 h 1.5 l 1,0.5 h 1.5 l 1,0.5 h 1.5 l 1,0.5 h 1.5 l 1,0.5 h 1.5 l 1,0.5 h 1.5 l 1,0.5 h 1.5 l 1,0.5 1.5,0.5 h 1 l 1.5,0.5 h 1 l 1.5,0.5 h 1 l 1.5,0.5 1,0.5 h 1.5 l 1,0.5 h 1.5 l 1,0.5 1.5,0.5 h 1 l 1.5,0.5 1,0.5 h 1.5 l 1,0.5 h 1.5"
         style="fill:none;stroke:#0000ff;stroke-width:5;stroke-linecap:butt;stroke-linejoin:miter;stroke-miterlimit:3.8;stroke-dasharray:none;stroke-opacity:1"
         id="path25107" />
      <path
         d="m 1648,977 1,0.5 1.5,0.5 h 1 l 1.5,0.5 1,0.5 h 1.5 l 1,0.5 1.5,0.5 h 1 l 1.5,0.5 1,0.5 1.5,0.5 h 1 l 1.5,0.5 1,0.5 h 1.5 l 1,0.5 1.5,0.5 h 1 l 1.5,0.5 1,0.5 1.5,0.5 h 1 l 1.5,0.5 1,0.5 1.5,0.5 h 1 l 1.5,0.5 1,0.5 1.5,0.5 1,0.5 h 1.5 l 1,0.5 1.5,0.5 1,0.5 1.5,0.5 1,0.5 h 1.5 l 1,0.5 1.5,0.5 1,0.5 1.5,0.5 1,0.5 1.5,0.5 1,0.5 h 1.5 l 1,0.5 1.5,0.5 1,0.5 1.5,0.5 1,0.5 1.5,0.5 1,0.5 1.5,0.5 1,0.5 1.5,0.5 1,0.5 1.5,0.5 1,0.5 1.5,0.5 1,0.5 1,0.5 1.5,0.5 1,0.5 1.5,0.5 1,0.5 1.5,0.5 1,0.5 1.5,0.5 1,1 1.5,0.5 1,0.5 1.5,0.5 1,0.5 1.5,0.5 1,0.5 1.5,0.5 1,0.5 1.5,0.5 1,0.5 1.5,0.5 1,0.5 1.5,0.5 1,0.5 1.5,0.5 1,0.5 1.5,0.5 1,0.5 1.5,0.5 1,0.5 1.5,1 1,0.5 1.5,0.5 1,0.5 1.5,0.5 1,0.5 1.5,0.5 1,0.5 1.5,0.5 1,0.5 1.5,0.5 1,0.5 1.5,0.5 1,0.5 1.5,0.5 1,1 1.5,0.5 1,0.5 1.5,0.5 1,0.5 1.5,0.5 1,0.5 1.5,0.5 1,1 1.5,0.5 1,0.5 1.5,0.5 1,0.5 1.5,1 1,0.5 1.5,0.5 1,0.5 1.5,1 1,0.5 1.5,0.5 1,1 1.5,0.5 1,0.5 1.5,1 1,0.5 1.5,0.5 1,1 1.5,0.5 1,0.5 1.5,1 1,0.5 1.5,0.5 1,1 1.5,0.5 1,0.5 1.5,1 1,0.5 1.5,0.5 1,1 1.5,0.5 1,0.5 1.5,0.5 1,1 1.5,0.5 1,0.5 1.5,0.5 1,1 1.5,0.5 1,0.5 1.5,0.5 1,1 1.5,0.5 1,0.5 1.5,0.5 1,0.5 1.5,0.5 1,0.5 1.5,1 1,0.5 1.5,0.5 1,0.5 1.5,0.5 1,0.5 1.5,0.5 1,0.5 1.5,1 1,0.5 1.5,0.5 1,0.5 1.5,0.5 1,0.5 1.5,0.5 1,0.5 1.5,1 1,0.5 1.5,0.5 1,0.5 1.5,0.5 1,1 1.5,0.5 1,0.5 1.5,0.5 1,1 1.5,0.5 1,0.5 1.5,1 1,0.5 1.5,1 1,0.5 1.5,0.5 1,1 1.5,0.5 1,1 1.5,0.5 1,1 1.5,0.5 1,1 1.5,0.5 1,1 1.5,0.5 1,1 1.5,0.5 1,1 1.5,0.5 1,1 1.5,0.5 1,0.5 1.5,1 1,0.5 1.5,1 1,0.5 1.5,0.5 1,0.5 1.5,1 1,0.5 1.5,0.5 1,0.5 1.5,1 1,0.5 1.5,0.5 1,0.5 1.5,0.5 1,0.5 1.5,0.5 1,0.5 1.5,0.5 1,0.5 1.5,0.5 1,0.5 1.5,0.5 1,0.5 h 1.5 l 1,0.5 1.5,0.5 1,0.5 1.5,0.5 1,0.5 1.5,0.5 1,0.5 1.5,0.5 1,0.5 1.5,0.5 1,0.5 1.5,0.5"
         style="fill:none;stroke:#0000ff;stroke-width:5;stroke-linecap:butt;stroke-linejoin:miter;stroke-miterlimit:3.8;stroke-dasharray:none;stroke-opacity:1"
         id="path25109" />
      <path
         d="m 1959,1113 1,0.5 1.5,0.5 1,0.5 1.5,1 1,0.5 1.5,0.5 1,0.5 1.5,1 1,0.5 1.5,0.5 1,1 1.5,0.5 1,1 1.5,0.5 1,1 1.5,0.5 1,1 1.5,1 1,0.5 1.5,1 1,0.5 1.5,1 1,1 1.5,0.5 1,1 1.5,0.5 1,1 1.5,0.5 1,1 1.5,0.5 1,0.5 1.5,1 1,0.5 1.5,0.5 1,1 1.5,0.5 1,0.5 1.5,0.5 1,0.5 1.5,0.5 1,0.5 1.5,0.5 1,0.5 h 1.5 l 1,0.5 1.5,0.5 h 1 l 1.5,0.5 1,0.5 h 1.5 l 1,0.5 h 1.5 l 1,0.5 h 1.5 l 1,0.5 h 1.5 l 1,0.5 1.5,0.5 h 1 l 1.5,0.5 1,0.5 h 1.5 l 1,0.5 1.5,0.5 1,0.5 1.5,0.5 h 1 l 1.5,1 1,0.5 1.5,0.5 1,0.5 1.5,0.5 1,1 1.5,0.5 1,0.5 1.5,1 1,0.5 1.5,1 1,1 1.5,0.5 1,1 1.5,1 1,0.5 1.5,1 1,1 1.5,1 1,0.5 1.5,1 1,1 1.5,0.5 1,1 1.5,0.5 1,1 1.5,0.5 1,1 1.5,0.5 1,0.5 1.5,1 1,0.5 1.5,0.5 1,0.5 1.5,0.5 h 1 l 1.5,0.5 1,0.5 h 1.5 l 1,0.5 h 1.5 1 l 1.5,0.5 h 1 1.5 1 1.5 1 l 1.5,0.5 h 1 1.5 1 1.5 1 1.5 l 1,0.5 h 1.5 1 l 1.5,0.5 h 1 l 1.5,0.5 h 1 l 1.5,0.5 1,0.5 1.5,0.5 1,0.5 1.5,0.5 1,0.5 1.5,1 1,0.5 1.5,1 1,0.5 1.5,1 1,0.5 1.5,1 1,1 1.5,1 1,1 1.5,1 1,0.5 1.5,1 1,1 1.5,1 1,1 1.5,1 1,1 1.5,0.5 1,1 1.5,0.5 1,1 1.5,0.5 1,0.5 1.5,1 1,0.5 1.5,0.5 h 1 l 1.5,0.5 1,0.5 h 1.5 1 l 1.5,0.5 h 1 1.5 1 1.5 1 l 1.5,-0.5 h 1 1.5 l 1,-0.5 h 1.5 l 1,-0.5 h 1.5 1 l 1.5,-0.5 h 1 1.5 l 1,-0.5 h 1.5 1 1.5 l 1,0.5 h 1.5 1 l 1.5,0.5 1,0.5 h 1.5 l 1,0.5 1.5,0.5 1,1 1.5,0.5 1,0.5 1.5,1 1,0.5 1.5,1 1,1 1.5,1 1,1 1.5,1 1,1 1.5,1 1,1 1.5,1 1,1 1.5,1 1,1 1.5,1 1,1 1.5,1 1,0.5 1.5,1 1,0.5 1.5,1 1,0.5 1.5,0.5 1,0.5 h 1.5 l 1,0.5 h 1.5 l 1,0.5 h 1.5 1 1.5 l 1,-0.5 h 1.5 l 1,-0.5 h 1.5 l 1,-0.5 1.5,-0.5 h 1 l 1.5,-0.5 1,-0.5 1.5,-0.5 1,-0.5 1.5,-0.5 1,-0.5 h 1.5 l 1,-0.5 1.5,-0.5 h 1 l 1.5,-0.5 h 1"
         style="fill:none;stroke:#0000ff;stroke-width:5;stroke-linecap:butt;stroke-linejoin:miter;stroke-miterlimit:3.8;stroke-dasharray:none;stroke-opacity:1"
         id="path25111" />
      <path
         d="m 2270,1223 h 5 l 1.5,0.5 h 1 l 1.5,0.5 1,0.5 1.5,0.5 1,0.5 1.5,1 1,0.5 1.5,1 1,1 1.5,1 1,1 1.5,1 1,1 1.5,1 1,1 1.5,1.5 1,1 1.5,1 1,1 1.5,1 1,1 1.5,1 1,1 1.5,1 1,0.5 1.5,1 1,0.5 1.5,0.5 1,0.5 1.5,0.5 1,0.5 h 1.5 1 1.5 1 1.5 l 1,-0.5 h 1.5 l 1,-0.5 1.5,-0.5 1,-0.5 1.5,-0.5 1,-0.5 1.5,-0.5 1,-1 1.5,-0.5 1,-0.5 1.5,-1 1,-0.5 1.5,-0.5 1,-0.5 1.5,-0.5 1,-0.5 1.5,-0.5 1,-0.5 h 1.5 l 1,-0.5 h 1.5 1 1.5 1 l 1.5,0.5 h 1 l 1.5,0.5 1,0.5 1.5,1 1,0.5 1.5,1 1,0.5 1.5,1 1,1 1.5,1 1,1 1.5,1.5 1,1 1.5,1 1,1.5 1.5,1 1,1 1.5,1.5 1,1 1.5,1 1,1 1.5,1 1,0.5 1.5,1 1,1 1.5,0.5 1,0.5 1.5,0.5 h 1 l 1.5,0.5 h 1 1 1.5 l 1,-0.5 h 1.5 l 1,-0.5 1.5,-0.5 1,-0.5 1.5,-0.5 1,-1 1.5,-0.5 1,-1 1.5,-0.5 1,-1 1.5,-1 1,-0.5 1.5,-1 1,-1 1.5,-0.5 1,-1 1.5,-0.5 1,-0.5 1.5,-0.5 1,-0.5 1.5,-0.5 h 1 l 1.5,-0.5 h 1 1.5 1 l 1.5,0.5 h 1 l 1.5,0.5 1,0.5 1.5,1 1,0.5 1.5,1 1,1 1.5,1 1,1 1.5,1 1,1 1.5,1.5 1,1 1.5,1 1,1.5 1.5,1 1,1.5 1.5,1 1,1 1.5,1 1,1 1.5,1 1,1 1.5,0.5 1,1 1.5,0.5 1,0.5 h 1.5 l 1,0.5 h 1.5 1 1.5 l 1,-0.5 h 1.5 l 1,-0.5 1.5,-0.5 1,-0.5 1.5,-1 1,-0.5 1.5,-1 1,-1 1.5,-1 1,-1 1.5,-1 1,-0.5 1.5,-1 1,-1 1.5,-1 1,-1 1.5,-1 1,-0.5 1.5,-1 1,-0.5 1.5,-0.5 1,-0.5 h 1.5 l 1,-0.5 h 1.5 1 1.5 l 1,0.5 1.5,0.5 1,0.5 1.5,0.5 1,0.5 1.5,1 1,1 1.5,0.5 1,1.5 1.5,1 1,1 1.5,1 1,1.5 1.5,1 1,1.5 1.5,1 1,1.5 1.5,1 1,1.5 1.5,1 1,1 1.5,1 1,1 1.5,0.5 1,1 1.5,0.5 1,0.5 1.5,0.5 h 1 1.5 1 1.5 l 1,-0.5 h 1.5 l 1,-0.5 1.5,-0.5 1,-1 1.5,-0.5 1,-1 1.5,-1 1,-1 1.5,-1 1,-1 1.5,-1 1,-1 1.5,-1 1,-1 1.5,-1 1,-1 1.5,-1 1,-1 1.5,-1 1,-0.5 1.5,-0.5 1,-0.5 1.5,-0.5 1,-0.5 h 1.5 1 1.5 1"
         style="fill:none;stroke:#0000ff;stroke-width:5;stroke-linecap:butt;stroke-linejoin:miter;stroke-miterlimit:3.8;stroke-dasharray:none;stroke-opacity:1"
         id="path25113" />
      <path
         d="m 2581,1263 1.5,0.5 1,0.5 1.5,0.5 1,0.5 1.5,0.5 1,1 1.5,1 1,1 1.5,1 1,1.5 1.5,1 1,1.5 1.5,1 1,1.5 1.5,1 1,1.5 1.5,1 1,1.5 1.5,1 1,1 1.5,1 1,1 1.5,1 1,0.5 1.5,0.5 1,0.5 1.5,0.5 1,0.5 h 1.5 1 1.5 l 1,-0.5 1.5,-0.5 1,-0.5 1.5,-0.5 1,-0.5 1.5,-1 1,-1 1.5,-1 1,-1 1.5,-1 1,-1 1.5,-1 1,-1.5 1.5,-1 1,-1 1.5,-1 1,-1.5 1.5,-1 1,-1 1.5,-0.5 1,-1 1.5,-0.5 1,-1 1.5,-0.5 h 1 l 1.5,-0.5 h 1 1.5 1 1.5 l 1,0.5 1.5,0.5 1,0.5 1.5,1 1,1 1.5,1 1,1 1.5,1 1,1 1.5,1.5 1,1 1.5,1.5 1,1 1.5,1.5 1,1 1.5,1.5 1,1 1.5,1.5 1,1 1.5,1 1,1 1.5,1 1,0.5 1.5,0.5 1,0.5 1.5,0.5 1,0.5 h 1.5 1 1.5 l 1,-0.5 h 1.5 l 1,-0.5 1.5,-1 1,-0.5 1.5,-1 1,-1 1.5,-1 1,-1 1.5,-1 1,-1 1.5,-1.5 1,-1 1.5,-1.5 1,-1 1.5,-1 1,-1.5 1.5,-1 1,-1 1.5,-1 1,-0.5 1.5,-1 1,-0.5 1.5,-0.5 1,-0.5 1.5,-0.5 h 1 1.5 1 1.5 l 1,0.5 1.5,0.5 1,0.5 1.5,0.5 1,1 1.5,1 1,1 1.5,1 1,1 1.5,1.5 1,1 1.5,1.5 1,1 1.5,1.5 1,1.5 1.5,1 1,1.5 1.5,1 1,1 1.5,1 1,1 1.5,1 1,1 1.5,0.5 1,0.5 1.5,0.5 1,0.5 h 1.5 1 1.5 l 1,-0.5 1.5,-0.5 1,-0.5 1.5,-0.5 1,-0.5 1.5,-1 1,-1 1.5,-1 1,-1 1.5,-1 1,-1.5 1.5,-1 1,-1.5 1.5,-1 1,-1.5 1.5,-1 1,-1 1.5,-1.5 1,-1 1.5,-1 1,-1 1.5,-0.5 1,-1 1.5,-0.5 1,-0.5 1.5,-0.5 h 1 l 1.5,-0.5 1,0.5 h 1.5 l 1,0.5 h 1.5 l 1,1 1.5,0.5 1,1 1.5,0.5 1,1 1.5,1 1,1.5 1.5,1 1,1.5 1.5,1 1,1.5 1.5,1.5 1,1 1.5,1.5 1,1 1.5,1.5 1,1 1.5,1 1,1 1.5,1 1,1 1.5,0.5 1,0.5 1.5,0.5 h 1 l 1.5,0.5 h 1 1.5 l 1,-0.5 1.5,-0.5 h 1 l 1.5,-1 1,-0.5 1.5,-1 1,-1 1.5,-1 1,-1 1.5,-1 1,-1.5 1.5,-1 1,-1.5 1.5,-1 1,-1.5 1.5,-1 1,-1.5 1.5,-1 1,-1 1.5,-1 1,-1 1.5,-1 1,-1 1.5,-0.5 1,-0.5 1.5,-0.5 h 1 l 1.5,-0.5 h 1 l 1.5,0.5 h 1 l 1.5,0.5 1,0.5 1.5,0.5 1,1 1.5,1 1,1 1.5,1"
         style="fill:none;stroke:#0000ff;stroke-width:5;stroke-linecap:butt;stroke-linejoin:miter;stroke-miterlimit:3.8;stroke-dasharray:none;stroke-opacity:1"
         id="path25115" />
      <path
         d="m 2892.5,1279 1,1 1.5,1.5 1,1 1.5,1.5 1,1 1.5,1.5 1,1.5 1.5,1 1,1.5 1.5,1 1,1.5 1.5,1 1,1 1.5,1 1,0.5 1.5,1 1,0.5 1.5,0.5 h 1 l 1.5,0.5 h 1 1.5 l 1,-0.5 h 1.5 l 1,-0.5 1.5,-1 1,-0.5 1.5,-1 1,-1 1.5,-1 1,-1 1.5,-1 1,-1.5 1.5,-1 1,-1.5 1.5,-1 1,-1.5 1.5,-1.5 1,-1 1.5,-1.5 1,-1 1.5,-1 1,-1 1.5,-1 1,-0.5 1.5,-1 1,-0.5 1.5,-0.5 h 1 l 1.5,-0.5 h 1 l 1.5,0.5 h 1 l 1.5,0.5 1,0.5 1.5,0.5 1,1 1.5,0.5 1,1 1.5,1.5 1,1 1.5,1 1,1.5 1.5,1 1,1.5 1.5,1.5 1,1 1.5,1.5 1,1 1.5,1.5 1,1 1.5,1 1,1 1.5,1 1,1 1.5,0.5 1,1 1.5,0.5 h 1 l 1.5,0.5 h 1 1.5 l 1,-0.5 h 1.5 l 1,-0.5 1.5,-1 1,-0.5 1.5,-1 1,-1 1.5,-1 1,-1 1.5,-1 1,-1.5 1.5,-1 1,-1.5 1.5,-1 1,-1.5 1.5,-1.5 1,-1 1.5,-1.5 1,-1 1.5,-1 1,-1 1.5,-1 1,-1 1.5,-0.5 1,-0.5 1.5,-0.5 1,-0.5 h 1.5 1 1.5 1 l 1.5,0.5 1,0.5 1.5,0.5 1,1 1.5,1 1,1 1.5,1 1,1 1.5,1 1,1.5 1.5,1 1,1.5 1.5,1.5 1,1 1.5,1.5 1,1.5 1.5,1 1,1 1.5,1.5 1,1 1,1 1.5,0.5 1,1 1.5,0.5 1,0.5 1.5,0.5 h 1 1.5 1 1.5 l 1,-0.5 1.5,-0.5 1,-0.5 1.5,-0.5 1,-1 1.5,-1 1,-1 1.5,-1 1,-1 1.5,-1.5 1,-1.5 1.5,-1 1,-1.5 1.5,-1 1,-1.5 1.5,-1.5 1,-1 1.5,-1 1,-1.5 1.5,-1 1,-1 1.5,-0.5 1,-1 1.5,-0.5 1,-0.5 1.5,-0.5 h 1 1.5 1 1.5 l 1,0.5 1.5,0.5 1,0.5 1.5,1 1,0.5 1.5,1 1,1 1.5,1.5 1,1 1.5,1 1,1.5 1.5,1.5 1,1 1.5,1.5 1,1.5 1.5,1 1,1.5 1.5,1 1,1 1.5,1 1,1 1.5,1 1,1 1.5,0.5 1,0.5 1.5,0.5 h 1 1.5 1 1.5 l 1,-0.5 1.5,-0.5 1,-0.5 1.5,-0.5 1,-1 1.5,-1 1,-1 1.5,-1 1,-1 1.5,-1.5 1,-1 1.5,-1.5 1,-1.5 1.5,-1 1,-1.5 1.5,-1.5 1,-1 1.5,-1 1,-1.5 1.5,-1 1,-1 1.5,-0.5 1,-1 1.5,-0.5 1,-0.5 1.5,-0.5 h 1 l 1.5,-0.5 1,0.5 h 1.5 l 1,0.5 1.5,0.5 1,0.5 1.5,0.5 1,1 1.5,1 1,1 1.5,1 1,1 1.5,1.5 1,1 1.5,1.5 1,1.5 1.5,1 1,1.5 1.5,1.5"
         style="fill:none;stroke:#0000ff;stroke-width:5;stroke-linecap:butt;stroke-linejoin:miter;stroke-miterlimit:3.8;stroke-dasharray:none;stroke-opacity:1"
         id="path25117" />
      <path
         d="m 3203.5,1292.5 1,1 1.5,1.5 1,1 1.5,1 1,1 1.5,1 1,0.5 1.5,0.5 1,1 h 1.5 l 1,0.5 h 1.5 1 1.5 l 1,-0.5 1.5,-0.5 1,-0.5 1.5,-0.5 1,-1 1.5,-1 1,-1 1.5,-1 1,-1 1.5,-1.5 1,-1 1.5,-1.5 1,-1.5 1.5,-1 1,-1.5 1.5,-1.5 1,-1 1.5,-1.5 1,-1 1.5,-1 1,-1 1.5,-1 1,-0.5 1.5,-0.5 1,-0.5 1.5,-0.5 1,-0.5 h 1.5 1 1.5 l 1,0.5 1.5,0.5 1,0.5 1.5,0.5 1,1 1.5,1 1,1 1.5,1 1,1.5 1.5,1 1,1.5 1.5,1 1,1.5 1.5,1.5 1,1 1.5,1.5 1,1 1.5,1.5 1,1 1.5,1 1,1 1.5,1 1,0.5 1.5,1 1,0.5 1.5,0.5 h 1 1.5 1 1.5 1 l 1.5,-0.5 1,-0.5 1.5,-1 1,-0.5 1.5,-1 1,-1 1.5,-1 1,-1.5 1.5,-1 1,-1.5 1.5,-1 1,-1.5 1.5,-1.5 1,-1 1.5,-1.5 1,-1 1.5,-1.5 1,-1 1.5,-1 1,-1 1.5,-1 1,-1 1.5,-0.5 1,-0.5 1.5,-0.5 h 1 l 1.5,-0.5 h 1 l 1.5,0.5 h 1 l 1.5,0.5 1,0.5 1.5,1 1,0.5 1.5,1 1,1 1.5,1 1,1.5 1.5,1 1,1.5 1.5,1 1,1.5 1.5,1.5 1,1 1.5,1.5 1,1 1.5,1.5 1,1 1.5,1 1,1 1.5,1 1,1 1.5,0.5 1,0.5 1.5,0.5 1,0.5 h 1.5 1 1.5 l 1,-0.5 1.5,-0.5 1,-0.5 1.5,-0.5 1,-1 1.5,-1 1,-1 1.5,-1 1,-1 1.5,-1 1,-1.5 1.5,-1.5 1,-1 1.5,-1.5 1,-1.5 1.5,-1 1,-1.5 1.5,-1 1,-1.5 1.5,-1 1,-1 1.5,-1 1,-0.5 1.5,-0.5 1,-1 h 1.5 l 1,-0.5 h 1.5 1 1.5 1 l 1.5,0.5 1,0.5 1.5,1 1,0.5 1.5,1 1,1 1.5,1 1,1.5 1.5,1 1,1.5 1.5,1 1,1.5 1.5,1.5 1,1 1.5,1.5 1,1 1.5,1.5 1,1 1.5,1 1,1 1.5,1 1,1 1.5,0.5 1,0.5 1.5,0.5 1,0.5 h 1.5 1 1.5 l 1,-0.5 1.5,-0.5 1,-0.5 1.5,-0.5 1,-0.5 1.5,-1 1,-1 1.5,-1 1,-1.5 1.5,-1 1,-1.5 1.5,-1 1,-1.5 1.5,-1 1,-1.5 1.5,-1.5 1,-1 1.5,-1.5 1,-1 1.5,-1 1,-1 1.5,-1 1,-1 1.5,-0.5 1,-0.5 1.5,-0.5 1,-0.5 h 1.5 1 1.5 l 1,0.5 h 1.5 l 1,1 1.5,0.5 1,0.5 1.5,1 1,1 1.5,1 1,1.5 1.5,1 1,1 1.5,1.5 1,1.5 1.5,1 1,1.5 1.5,1.5 1,1 1.5,1.5 1,1 1.5,1 1,1 1.5,1 1,1 1.5,0.5 1,0.5"
         style="fill:none;stroke:#0000ff;stroke-width:5;stroke-linecap:butt;stroke-linejoin:miter;stroke-miterlimit:3.8;stroke-dasharray:none;stroke-opacity:1"
         id="path25119" />
      <path
         d="m 3514.5,1301 1.5,0.5 1,0.5 h 5 l 1.5,-0.5 1,-0.5 1.5,-0.5 1,-1 1.5,-1 1,-1 1.5,-1 1,-1 1.5,-1 1,-1.5 1.5,-1.5 1,-1 1.5,-1.5 1,-1.5 1.5,-1 1,-1.5 1.5,-1 1,-1.5 1.5,-1 1,-1 1.5,-1 1,-0.5 1.5,-1 1,-0.5 1.5,-0.5 1,-0.5 h 1.5 1 1.5 l 1,0.5 1.5,0.5 h 1 l 1.5,1 1,0.5 1.5,1 1,1 1.5,1 1,1 1.5,1.5 1,1 1.5,1.5 1,1.5 1.5,1 1,1.5 1.5,1.5 1,1 1.5,1.5 1,1 1.5,1 1,1 1.5,1 1,1 1.5,0.5 1,0.5 1.5,0.5 1,0.5 h 1.5 1 1.5 1 l 1.5,-0.5 1,-0.5 1.5,-0.5 1,-1 1.5,-0.5 1,-1 1.5,-1 1,-1.5 1.5,-1 1,-1.5 1.5,-1 1,-1.5 1.5,-1.5 1,-1 1.5,-1.5 1,-1 1.5,-1.5 1,-1 1.5,-1.5 1,-1 1.5,-1 1,-0.5 1.5,-1 1,-0.5 1.5,-0.5 h 1 l 1.5,-0.5 h 1 1.5 l 1,0.5 1.5,0.5 h 1 l 1.5,1 1,0.5 1.5,1 1,1 1.5,1 1,1 1.5,1.5 1,1 1.5,1.5 1,1 1.5,1.5 1,1.5 1.5,1 1,1.5 1.5,1.5 1,1 1.5,1 1,1 1.5,1 1,1 1.5,0.5 1,0.5 1.5,0.5 1,0.5 h 1.5 l 1,0.5 1.5,-0.5 h 1 l 1.5,-0.5 1,-0.5 1.5,-0.5 1,-0.5 1.5,-1 1,-1 1.5,-1 1,-1 1.5,-1.5 1,-1 1.5,-1.5 1,-1.5 1.5,-1 1,-1.5 1.5,-1 1,-1.5 1.5,-1.5 1,-1 1.5,-1 1,-1 1.5,-1 1,-1 1.5,-0.5 1,-1 1.5,-0.5 h 1 l 1.5,-0.5 h 1 1.5 l 1,0.5 h 1.5 l 1,0.5 1.5,1 1,0.5 1.5,1 1,1 1.5,1 1,1 1.5,1 1,1.5 1.5,1.5 1,1 1,1.5 1.5,1.5 1,1 1.5,1.5 1,1 1.5,1.5 1,1 1.5,1 1,1 1.5,1 1,0.5 1.5,0.5 1,0.5 1.5,0.5 h 1 l 1.5,0.5 1,-0.5 h 1.5 l 1,-0.5 1.5,-0.5 1,-0.5 1.5,-0.5 1,-1 1.5,-1 1,-1 1.5,-1 1,-1 1.5,-1.5 1,-1.5 1.5,-1 1,-1.5 1.5,-1.5 1,-1 1.5,-1.5 1,-1 1.5,-1.5 1,-1 1.5,-1 1,-1 1.5,-1 1,-0.5 1.5,-0.5 1,-0.5 1.5,-0.5 1,-0.5 h 1.5 1 l 1.5,0.5 h 1 l 1.5,0.5 1,1 1.5,0.5 1,1 1.5,1 1,1 1.5,1 1,1 1.5,1.5 1,1 1.5,1.5 1,1.5 1.5,1 1,1.5 1.5,1.5 1,1 1.5,1 1,1.5 1.5,1 1,1 1.5,0.5 1,1 1.5,0.5 1,0.5 1.5,0.5 1,0.5 h 1.5 1 l 1.5,-0.5 h 1 l 1.5,-0.5 1,-0.5"
         style="fill:none;stroke:#0000ff;stroke-width:5;stroke-linecap:butt;stroke-linejoin:miter;stroke-miterlimit:3.8;stroke-dasharray:none;stroke-opacity:1"
         id="path25121" />
      <path
         d="m 3825.5,1301 1.5,-1 1,-1 1.5,-0.5 1,-1 1.5,-1.5 1,-1 1.5,-1.5 1,-1 1.5,-1.5 1,-1.5 1.5,-1 1,-1.5 1.5,-1 1,-1.5 1.5,-1 1,-1.5 1.5,-1 1,-1 1.5,-0.5 1,-1 1.5,-0.5 1,-0.5 1.5,-0.5 1,-0.5 h 1.5 1 l 1.5,0.5 h 1 l 1.5,0.5 1,0.5 1.5,1 1,0.5 1.5,1 1,1 1.5,1.5 1,1 1.5,1 1,1.5 1.5,1.5 1,1 1.5,1.5 1,1.5 1.5,1 1,1.5 1.5,1 1,1.5 1.5,1 1,1 1.5,0.5 1,1 1.5,0.5 1,0.5 1.5,0.5 h 1 l 1.5,0.5 h 1 l 1.5,-0.5 h 1 l 1.5,-0.5 1,-0.5 1.5,-1 1,-0.5 1.5,-1 1,-1 1.5,-1 1,-1.5 1.5,-1 1,-1.5 1.5,-1 1,-1.5 1.5,-1.5 1,-1.5 1.5,-1 1,-1.5 1.5,-1 1,-1 1.5,-1.5 1,-0.5 1.5,-1 1,-1 1.5,-0.5 1,-0.5 1.5,-0.5 h 1 l 1.5,-0.5 h 1 l 1.5,0.5 h 1 l 1.5,0.5 1,0.5 1.5,1 1,0.5 1.5,1 1,1 1.5,1.5 1,1 1.5,1 1,1.5 1.5,1 1,1.5 1.5,1.5 1,1 1.5,1.5 1,1.5 1.5,1 1,1 1.5,1.5 1,1 1.5,0.5 1,1 1.5,0.5 1,0.5 1.5,0.5 h 1 l 1.5,0.5 h 1 l 1.5,-0.5 h 1 l 1.5,-0.5 1,-0.5 1.5,-1 1,-0.5 1.5,-1 1,-1 1.5,-1 1,-1 1.5,-1.5 1,-1.5 1.5,-1 1,-1.5 1.5,-1.5 1,-1 1.5,-1.5 1,-1 1.5,-1.5 1,-1 1.5,-1 1,-1 1.5,-1 1,-1 1.5,-0.5 1,-0.5 1.5,-0.5 h 1 l 1.5,-0.5 h 1 l 1.5,0.5 h 1 l 1.5,0.5 1,0.5 1.5,1 1,0.5 1.5,1 1,1 1.5,1 1,1.5 1.5,1 1,1.5 1.5,1 1,1.5 1.5,1.5 1,1 1.5,1.5 1,1 1.5,1.5 1,1 1.5,1 1,1 1.5,1 1,1 1.5,0.5 1,0.5 1.5,0.5 h 1 l 1.5,0.5 h 1 l 1.5,-0.5 h 1 l 1.5,-0.5 1,-0.5 1.5,-0.5 1,-1 1.5,-1 1,-1 1.5,-1 1,-1 1.5,-1.5 1,-1 1.5,-1.5 1,-1.5 1.5,-1 1,-1.5 1.5,-1.5 1,-1 1.5,-1.5 1,-1 1.5,-1 1,-1 1.5,-1 1,-0.5 1.5,-1 1,-0.5 1.5,-0.5 h 1 l 1.5,-0.5 h 1 l 1.5,0.5 h 1 l 1.5,0.5 1,0.5 1.5,0.5 1,1 1.5,1 1,1 1.5,1 1,1 1.5,1.5 1,1 1.5,1.5 1,1.5 1.5,1 1,1.5 1.5,1.5 1,1 1.5,1.5 1,1 1.5,1 1,1 1.5,1 1,1 1.5,0.5 1,0.5 1.5,0.5 h 1 l 1.5,0.5 h 1 1.5 l 1,-0.5 1.5,-0.5 1,-0.5 1.5,-0.5 1,-1 1.5,-0.5 1,-1 1.5,-1.5 1,-1 1.5,-1 1,-1.5 1.5,-1.5"
         style="fill:none;stroke:#0000ff;stroke-width:5;stroke-linecap:butt;stroke-linejoin:miter;stroke-miterlimit:3.8;stroke-dasharray:none;stroke-opacity:1"
         id="path25123" />
      <path
         d="m 4137,1291.5 1,-1 1.5,-1.5 1,-1.5 1.5,-1 1,-1.5 1.5,-1 1,-1.5 1.5,-1 1,-1 1.5,-1 1,-0.5 1.5,-1 1,-0.5 1.5,-0.5 h 1 l 1.5,-0.5 h 1 l 1.5,0.5 h 1 l 1.5,0.5 1,0.5 1.5,0.5 1,1 1.5,1 1,1 1.5,1 1,1 1.5,1.5 1,1 1.5,1.5 1,1 1.5,1.5 1,1.5 1.5,1 1,1.5 1.5,1 1,1.5 1.5,1 1,1 1.5,1 1,0.5 1.5,1 1,0.5 1.5,0.5 h 1 l 1.5,0.5 h 1 1.5 l 1,-0.5 1.5,-0.5 1,-0.5 1.5,-0.5 1,-1 1.5,-0.5 1,-1 1.5,-1 1,-1.5 1.5,-1 1,-1.5 1.5,-1 1,-1.5 1.5,-1.5 1,-1 1.5,-1.5 1,-1 1.5,-1.5 1,-1 1.5,-1.5 1,-1 1.5,-0.5 1,-1 1.5,-0.5 1,-1 1.5,-0.5 h 1 l 1.5,-0.5 h 1 l 1.5,0.5 h 1 l 1.5,0.5 1,0.5 1.5,0.5 1,1 1.5,0.5 1,1 1.5,1.5 1,1 1.5,1 1,1.5 1.5,1 1,1.5 1.5,1.5 1,1 1.5,1.5 1,1.5 1.5,1 1,1.5 1.5,1 1,1 1.5,1 1,0.5 1.5,1 1,0.5 1.5,0.5 h 1 l 1.5,0.5 h 1 1.5 l 1,-0.5 1.5,-0.5 1,-0.5 1.5,-0.5 1,-0.5 1.5,-1 1,-1 1.5,-1 1,-1 1.5,-1.5 1,-1 1.5,-1.5 1,-1.5 1.5,-1 1,-1.5 1.5,-1.5 1,-1 1.5,-1.5 1,-1 1.5,-1 1,-1 1.5,-1 1,-1 1.5,-0.5 1,-1 h 1.5 l 1,-0.5 1.5,-0.5 h 1 l 1.5,0.5 h 1 l 1.5,0.5 1,0.5 1.5,0.5 1,1 1.5,0.5 1,1 1.5,1 1,1.5 1.5,1 1,1.5 1.5,1 1,1.5 1.5,1 1,1.5 1.5,1.5 1,1 1.5,1.5 1,1 1.5,1 1,1 1.5,1 1,1 1.5,1 1,0.5 1.5,0.5 h 1 l 1.5,0.5 h 1 1.5 l 1,-0.5 1.5,-0.5 1,-0.5 1.5,-0.5 1,-0.5 1.5,-1 1,-1 1.5,-1 1,-1 1.5,-1.5 1,-1 1.5,-1.5 1,-1 1.5,-1.5 1,-1.5 1.5,-1 1,-1.5 1.5,-1.5 1,-1 1.5,-1 1,-1 1.5,-1 1,-1 1.5,-0.5 1,-0.5 1.5,-0.5 1,-0.5 h 1.5 l 1,-0.5 1.5,0.5 h 1 l 1.5,0.5 1,0.5 1.5,0.5 1,0.5"
         style="fill:none;stroke:#0000ff;stroke-width:5;stroke-linecap:butt;stroke-linejoin:miter;stroke-miterlimit:3.8;stroke-dasharray:none;stroke-opacity:1"
         id="path25125" />
      <g
         id="g25127"
         transform="scale(10)">
        <text
           xml:space="preserve"
           transform="matrix(1,0,0,-1,375.86,30.0852)"
           style="font-style:italic;font-variant:normal;font-size:8px;font-family:Times;-inkscape-font-specification:Times-Italic;writing-mode:lr-tb;fill:#000000;fill-opacity:1;fill-rule:nonzero;stroke:none"
           id="text25131"><tspan
             x="0 4.888 8.4399996 10.44 14.44 18.440001 22.440001"
             y="0"
             sodipodi:role="line"
             id="tspan25129">Re 1000</tspan></text>
      </g>
      <path
         d="m 4071,327.5 h 223.5 M 401,256 l 1,1761 0.5,-1761 m 1,0 1,572 0.5,-572 m 1,0 1,294.5 1,-176 1.5,194.5 1,5 1.5,110.5 1,58.5 1.5,86 1,70 1.5,73 1,63 1.5,57 1,48 1.5,39.5 1,29.5 1.5,22 1,13 1.5,6.5 h 1 l 1.5,-5 1,-9 1.5,-12 1,-14.5 1.5,-16 1,-17 1.5,-17 1,-16.5 1.5,-16.5 1,-15 1.5,-15 1,-14 1.5,-13 1,-13 1.5,-12 1,-12.5 1.5,-12 1,-12 1.5,-12.5 1,-12.5 1.5,-13 1,-13 1.5,-13 1,-13 1.5,-12.5 1,-12.5 1.5,-12 1,-11.5 1.5,-11.5 1,-10.5 1.5,-10 1,-9.5 1.5,-9 1,-8.5 1.5,-8 1,-7 1.5,-7.5 1,-6.5 1.5,-6.5 1,-6.5 1.5,-6 1,-6 1.5,-6 1,-6 1.5,-5.5 1,-5.5 1.5,-5.5 1,-5.5 1.5,-5 1,-5 1.5,-4.5 1,-5 1.5,-4 1,-4.5 1.5,-4 1,-4.5 1.5,-4 1,-4 1.5,-3.5 1,-4 1.5,-3.5 1,-4 1.5,-3.5 1,-3.5 1.5,-3.5 1,-4 1.5,-3.5 1,-3.5 1.5,-3.5 1,-3.5 1.5,-4 1,-3.5 1.5,-4 1,-3.5 1.5,-4 1,-3.5 1.5,-3.5 1,-3.5 1.5,-4 1,-3.5 1.5,-3.5 1,-3 1.5,-3.5 1,-3.5 1.5,-3 1,-3 1.5,-3 1,-3 1.5,-3 1,-2.5 1.5,-3 1,-2.5 1.5,-2.5 1,-3 1.5,-2.5 1,-3 1.5,-2.5 1,-2.5 1.5,-3 1,-2.5 1.5,-3 1,-2.5 1.5,-2.5 1,-3 1.5,-2.5 1,-2.5 1.5,-2.5 1,-2 1.5,-2.5 1,-2.5 1.5,-2 1,-2 1.5,-2 1,-2 1.5,-2.5 1,-1.5 1.5,-2 1,-2 1.5,-2 1,-2 1.5,-1.5 1,-2 1.5,-2 1,-1.5 1.5,-2 1,-2 1.5,-2 1,-2 1.5,-1.5 1,-2 1.5,-2 1,-2 1.5,-1.5 1,-2 1.5,-1.5 1,-2 1.5,-2 1,-1.5 1.5,-1.5 1,-2 1.5,-1.5 1,-1.5 1.5,-1.5 1,-1.5 1.5,-1.5 1,-1.5 1.5,-1.5 1,-1 1.5,-1.5 1,-1.5 1.5,-1 1,-1.5 1.5,-1 1,-1.5 1.5,-1 1,-1.5 1.5,-1 1,-1.5 1.5,-1 1,-1.5 1.5,-1.5 1,-1 1.5,-1.5 1,-1 1.5,-1.5 1,-1.5 1.5,-1.5 1,-1.5 1.5,-1.5 1,-1.5 1.5,-1.5 1,-1.5 1.5,-1 1,-1.5 1.5,-1.5 1,-1.5 1.5,-1.5 1,-1.5 1.5,-1.5 1,-1.5 1.5,-1.5 1,-1.5 1.5,-1 1,-1.5 1.5,-1.5 1,-1 1.5,-1.5 1,-1 1.5,-1.5 1,-1 1.5,-1 1,-1 1.5,-1.5 1,-1 1.5,-1 1,-1 1.5,-1 1,-1 1.5,-1.5 1,-1 1.5,-1 1,-1 1.5,-1 1,-1.5 1.5,-1 1,-1.5 1.5,-1 1,-1 1.5,-1.5 1,-1.5 1.5,-1 1,-1.5 1.5,-1.5 1,-1.5 1.5,-1.5 1,-1 1.5,-1.5 1,-1.5 1.5,-1.5 1,-1.5 1.5,-1.5 1,-1.5 1.5,-1 1,-1.5 1.5,-1.5 1,-1 1.5,-1 1,-1.5 1.5,-1 1,-1"
         style="fill:none;stroke:#127833;stroke-width:5;stroke-linecap:butt;stroke-linejoin:miter;stroke-miterlimit:3.8;stroke-dasharray:none;stroke-opacity:1"
         id="path25133" />
      <path
         d="m 715.5,353 1.5,-0.5 1,-1 1.5,-0.5 1,-0.5 1.5,-0.5 1,-0.5 1.5,-0.5 1,-0.5 h 1.5 1 1.5 1 1.5 l 1,0.5 h 1.5 l 1,0.5 1.5,0.5 1,0.5 1.5,0.5 1,0.5 1.5,0.5 1,1 1.5,1 1,0.5 1.5,1 1,1 1.5,1.5 1,1 1.5,1.5 1,1 1.5,1.5 1,1.5 1.5,1.5 1,1.5 1.5,1.5 1,2 1.5,1.5 1,2 1.5,2 1,1.5 1.5,2 1,2 1.5,2 1,2 1.5,1.5 1,2 1.5,2 1,2 1.5,1.5 1,2 1.5,1.5 1,1.5 1.5,1.5 1,1.5 1.5,1.5 1,1 1.5,1 1,1 1.5,1 1,0.5 1.5,0.5 1,0.5 h 1.5 1 1.5 l 1,-0.5 1.5,-0.5 1,-0.5 1.5,-0.5 1,-1 1.5,-1 1,-1 1.5,-1.5 1,-1.5 1.5,-1.5 1,-1.5 1.5,-2 1,-2 1.5,-2 1,-2 1.5,-2.5 1,-2 1.5,-2.5 1,-2.5 1.5,-2 1,-2.5 1.5,-2 1,-2.5 1.5,-2 1,-2 1.5,-2 1,-2 1.5,-2 1,-2 1.5,-1.5 1,-2 1.5,-1.5 1,-1.5 1.5,-1.5 1,-1.5 1.5,-1 1,-0.5 1.5,-0.5 h 1 l 1.5,1 1,1 1.5,2 1,2.5 1.5,3 1,4 1.5,5.5 1,6 1.5,7 1,8 1.5,9.5 1,10.5 1.5,12 1,13 1.5,14.5 1,15.5 1.5,17 1,18.5 1.5,19.5 1,20.5 1.5,22 1,23 1.5,23.5 1,24.5 1.5,24.5 1,25.5 1.5,25 1,25.5 1.5,25 1,24.5 1.5,24 1,23 1.5,22 1,21 1.5,19.5 1,18 1.5,17 1,15 1.5,14 1,12 1.5,11 1,9 1.5,8 1,6.5 1.5,5 1,4 1.5,3 1,2 1.5,1.5 1,0.5 h 1.5 l 1,-0.5 1.5,-1 1,-0.5 h 1.5 1 l 1.5,2 1,3 1.5,5 1,8 1.5,11 1,14.5 1.5,18.5 1,22.5 1.5,27 1,30.5 1.5,34 1,36.5 1.5,38 1,38.5 1.5,37 1,34.5 1.5,31 1,26 1.5,20.5 1,14.5 1.5,9 1,3 1.5,-2.5 1,-7 1.5,-11.5 1,-15 1.5,-17.5 1,-19.5 1.5,-20.5 1,-21.5 1.5,-20.5 1,-20 1.5,-18.5 1,-17 1.5,-15.5 1,-13 1.5,-12 1,-10 1.5,-8.5 1,-7.5 1.5,-7 1,-6 1.5,-6.5 1,-6 1.5,-6 1,-6.5 1.5,-7 1,-7 1.5,-7.5 1,-7 1.5,-7 1,-7 1.5,-6 1,-5.5 1.5,-5 1,-4 1.5,-4 1,-2.5 1.5,-2.5 1,-2 1.5,-1.5 1,-1 1.5,-1 1,-0.5 1.5,-1 1,-1 1.5,-1 1,-2 1.5,-1.5 1,-2 1.5,-2.5 1,-3.5 1.5,-3.5 1,-4.5 1.5,-5 1,-5.5 1.5,-7 1,-7.5 1.5,-8 1,-9.5 1.5,-10 1,-10.5 1.5,-12 1,-12 1.5,-12.5 1,-12.5 1.5,-12.5 1,-11.5 1.5,-11.5"
         style="fill:none;stroke:#127833;stroke-width:5;stroke-linecap:butt;stroke-linejoin:miter;stroke-miterlimit:3.8;stroke-dasharray:none;stroke-opacity:1"
         id="path25135" />
      <path
         d="m 1027,937.5 1,-9.5 1.5,-8 1,-6 1.5,-3 1,0.5 1.5,4.5 1,9 1.5,13.5 1,18.5 1.5,23.5 1,27.5 1.5,32 1,35.5 1.5,37.5 1,39.5 1.5,39.5 1,39.5 1.5,38.5 1,36 1.5,33 1,30 1.5,26.5 1,22 1.5,17.5 1,12.5 1,8 1.5,3.5 1,-1 1.5,-6 1,-10 1.5,-14 1,-17 1.5,-20 1,-22.5 1.5,-24 1,-25.5 1.5,-26 1,-25.5 1.5,-25 1,-23 1.5,-21 1,-18.5 1.5,-14.5 1,-10.5 1.5,-5.5 1,-0.5 1.5,6 1,12.5 1.5,20 1,27 1.5,34.5 1,40 1.5,45.5 1,48 1.5,49 1,48 1.5,45 1,40.5 1.5,35 1,28.5 1.5,22 1,15.5 1.5,9.5 1,3 1.5,-3 1,-8.5 1.5,-14 1,-18.5 1.5,-23 1,-25.5 1.5,-28.5 1,-29.5 1.5,-30.5 1,-31 1.5,-31.5 1,-30.5 1.5,-30 1,-29.5 1.5,-28.5 1,-27.5 1.5,-26.5 1,-24 1.5,-22.5 1,-19.5 1.5,-16.5 1,-12.5 1.5,-7.5 1,-2 1.5,3 1,9 1.5,14.5 1,19 1.5,23.5 1,26.5 1.5,29 1,30 1.5,30 1,30 1.5,28 1,26.5 1.5,23.5 1,20.5 1.5,17.5 1,14.5 1.5,11 1,7.5 1.5,5 1,1.5 1.5,-1 1,-3.5 1.5,-6.5 1,-8.5 1.5,-10.5 1,-13 1.5,-14.5 1,-16.5 1.5,-18 1,-19 1.5,-21 1,-22 1.5,-23 1,-24.5 1.5,-25.5 1,-26 1.5,-27 1,-27 1.5,-26.5 1,-26 1.5,-24.5 1,-22.5 1.5,-20 1,-17.5 1.5,-14 1,-10.5 1.5,-7.5 1,-4 1.5,-0.5 1,2.5 1.5,6.5 1,9.5 1.5,13.5 1,18 1.5,23 1,28.5 1.5,35.5 1,41.5 1.5,48 1,54 1.5,58.5 1,62 1.5,63 1,62.5 1.5,60 1,55.5 1.5,49.5 1,43 1.5,35.5 1,28 1.5,20 1,12 1.5,4 1,-3.5 1.5,-10.5 1,-18 1.5,-24 1,-30 1.5,-35 1,-39 1.5,-42.5 1,-44.5 1.5,-46 1,-46.5 1.5,-46 1,-44.5 1.5,-42 1,-37.5 1.5,-31.5 1,-24.5 1.5,-16 1,-6 1.5,4 1,14 1.5,24 1,32 1.5,38 1,42 1.5,43.5 1,43.5 1.5,41.5 1,38 1.5,33.5 1,28 1.5,23 1,17 1.5,12.5 1,7 1.5,3 1,-1 1.5,-5.5 1,-8.5 1.5,-12 1,-16 1.5,-19 1,-22 1.5,-25 1,-27 1.5,-29.5 1,-30.5 1.5,-31.5 1,-31.5 1.5,-32 1,-32.5 1.5,-32 1,-32.5 1.5,-32.5 1,-33 1.5,-33.5 1,-33.5 1.5,-33.5 1,-32.5 1.5,-29.5 1,-26 1.5,-20.5 1,-12.5 1.5,-4 1,6.5 1.5,17 1,28 1.5,37 1,46 1.5,52 1,57 1.5,58.5 1,59.5 1.5,57.5 1,54.5 1.5,50 1,45.5 1.5,39.5 1,34 1.5,28 1,22.5 1.5,16 1,11 1.5,5.5 1,0.5 1.5,-4.5 1,-8 1.5,-13"
         style="fill:none;stroke:#127833;stroke-width:5;stroke-linecap:butt;stroke-linejoin:miter;stroke-miterlimit:3.8;stroke-dasharray:none;stroke-opacity:1"
         id="path25137" />
      <path
         d="m 1338,1760 1,-16.5 1.5,-20.5 1,-23.5 1.5,-26 1,-29 1.5,-31 1,-33 1.5,-34.5 1,-35.5 1.5,-36 1,-35.5 1.5,-35 1,-34 1.5,-31.5 1,-29 1.5,-25.5 1,-21 1.5,-16 1,-8 1.5,-0.5 1,9 1.5,20 1,30 1.5,40 1,49 1.5,55 1,59.5 1.5,60.5 1,59 1.5,55 1,49.5 1.5,42.5 1,35 1.5,26.5 1,19.5 1.5,11.5 1,4.5 1.5,-2 1,-8 1.5,-14.5 1,-19.5 1.5,-24.5 1,-29 1.5,-32 1,-35 1.5,-37.5 1,-38.5 1.5,-39 1,-40 1.5,-40 1,-39.5 1.5,-39 1,-38.5 1.5,-37.5 1,-35.5 1.5,-33 1,-29.5 1.5,-23.5 1,-18 1.5,-9.5 1,-1.5 1.5,8.5 1,17 1.5,26 1,32.5 1.5,39 1,42.5 1.5,44.5 1,44.5 1.5,43.5 1,40.5 1.5,36.5 1,32.5 1.5,27.5 1,22 1.5,17 1,12 1.5,7.5 1,2.5 1.5,-1.5 1,-6 1.5,-9 1,-13 1.5,-16 1,-19 1.5,-21.5 1,-24 1.5,-26 1,-28 1.5,-29 1,-30.5 1.5,-30.5 1,-31 1.5,-31.5 1,-30.5 1.5,-30.5 1,-29 1.5,-28.5 1,-26.5 1.5,-25 1,-22 1.5,-18.5 1,-13 1.5,-7.5 1,1 1.5,10 1,20 1.5,30.5 1,40.5 1.5,49 1,56.5 1.5,61.5 1,64 1.5,64 1,62 1.5,58 1,52.5 1.5,46.5 1,39.5 1.5,32.5 1,25 1.5,18 1,11 1.5,4 1,-2.5 1.5,-9.5 1,-15.5 1.5,-21.5 1,-27.5 1.5,-32 1,-37 1.5,-40.5 1,-43 1.5,-45.5 1,-46 1.5,-46.5 1,-46 1.5,-45 1,-43 1.5,-40 1,-36.5 1.5,-31.5 1,-25 1.5,-16.5 1,-7 1.5,3.5 1,15 1.5,25.5 1,35.5 1.5,43.5 1,49 1.5,51.5 1,52.5 1.5,50.5 1,47.5 1.5,42.5 1,37 1.5,30.5 1,24.5 1.5,18.5 1,12.5 1.5,7 1,2.5 1.5,-3 1,-7 1.5,-11.5 1,-15.5 1.5,-20 1,-23 1.5,-27 1,-29.5 1.5,-32 1,-34 1.5,-35.5 1,-36 1.5,-36 1,-36 1.5,-35.5 1,-35 1.5,-34.5 1,-33 1.5,-32.5 1,-30.5 1.5,-28.5 1,-25 1.5,-20 1,-14 1.5,-5.5 1,4 1.5,14.5 1,25 1.5,35 1,44.5 1.5,51 1,56.5 1.5,58.5 1,59.5 1.5,58 1,54.5 1.5,50 1,45 1.5,39 1,32 1.5,26 1,20 1.5,13 1,7.5 1.5,1.5 1,-4.5 1.5,-9 1,-15 1.5,-19.5 1,-24 1.5,-28 1,-31.5 1.5,-35 1,-37 1.5,-39.5 1,-40 1.5,-41 1,-40.5 1.5,-40 1,-38.5 1.5,-36.5 1,-34.5 1.5,-31 1,-27 1.5,-21.5 1,-15.5 1.5,-7.5 1,1 1.5,12 1,22 1.5,33 1,41.5 1.5,50 1,54.5 1.5,58 1,58 1.5,56 1,52.5 1.5,47.5 1,41 1.5,34.5 1,27.5 1.5,21 1,14.5 1.5,8 1,2"
         style="fill:none;stroke:#127833;stroke-width:5;stroke-linecap:butt;stroke-linejoin:miter;stroke-miterlimit:3.8;stroke-dasharray:none;stroke-opacity:1"
         id="path25139" />
      <path
         d="m 1649,1859 1.5,-3.5 1,-9 1.5,-14.5 1,-19.5 1.5,-24 1,-28.5 1.5,-32.5 1,-35.5 1.5,-38 1,-40 1.5,-40.5 1,-41.5 1.5,-41.5 1,-41 1.5,-40 1,-39.5 1.5,-37.5 1,-35 1.5,-32.5 1,-27.5 1.5,-21.5 1,-13.5 1.5,-4.5 1,6 1.5,16.5 1,28 1.5,37 1,45 1.5,51 1,54.5 1.5,55.5 1,54.5 1.5,51 1,47 1.5,41.5 1,35.5 1.5,29 1,23.5 1.5,16.5 1,11.5 1.5,5 1,0.5 1.5,-5 1,-10 1.5,-14 1,-18.5 1.5,-22.5 1,-26 1.5,-29.5 1,-32.5 1.5,-34.5 1,-36 1.5,-37.5 1,-38 1.5,-38 1,-37 1.5,-36.5 1,-35 1.5,-34 1,-31 1,-29.5 1.5,-25.5 1,-22.5 1.5,-16 1,-9 1.5,-1 1,8.5 1.5,19 1,29.5 1.5,39 1,48 1.5,54 1,58.5 1.5,60 1,59.5 1.5,57 1,53 1.5,47.5 1,41.5 1.5,34.5 1,28 1.5,21.5 1,15 1.5,8 1,2.5 1.5,-3.5 1,-10 1.5,-15 1,-21 1.5,-25.5 1,-30.5 1.5,-34 1,-38 1.5,-40.5 1,-42 1.5,-43.5 1,-43.5 1.5,-43.5 1,-42.5 1.5,-41.5 1,-39 1.5,-36.5 1,-33 1.5,-28.5 1,-22 1.5,-14 1,-4.5 1.5,5.5 1,17 1.5,28 1,38 1.5,46 1,52 1.5,55.5 1,56.5 1.5,55 1,52 1.5,47.5 1,41.5 1.5,35.5 1,28.5 1.5,23 1,16 1.5,10.5 1,5 1.5,-0.5 1,-5.5 1.5,-10.5 1,-15 1.5,-20 1,-24 1.5,-27.5 1,-31.5 1.5,-34.5 1,-36.5 1.5,-38 1,-39 1.5,-40 1,-39.5 1.5,-39 1,-38 1.5,-37 1,-35.5 1.5,-33.5 1,-31.5 1.5,-27.5 1,-23 1.5,-16.5 1,-8.5 1.5,0.5 1,11 1.5,22 1,32.5 1.5,42 1,50 1.5,55 1,58.5 1.5,59 1,58 1.5,55 1,50 1.5,44.5 1,38.5 1.5,32 1,25.5 1.5,19 1,13 1.5,6.5 1,1 1.5,-4.5 1,-10.5 1.5,-15.5 1,-20.5 1.5,-25 1,-29 1.5,-33 1,-36.5 1.5,-38.5 1,-40.5 1.5,-41.5 1,-41.5 1.5,-41.5 1,-41 1.5,-39.5 1,-37.5 1.5,-35 1,-32 1.5,-28.5 1,-23 1.5,-16 1,-8 1.5,1.5 1,12.5 1.5,23 1,33.5 1.5,43 1,50 1.5,55.5 1,58 1.5,58.5 1,56.5 1.5,52.5 1,47.5 1.5,41.5 1,35 1.5,28.5 1,22 1.5,15.5 1,9.5 1.5,3.5 1,-2.5 1.5,-7.5 1,-12.5 1.5,-18 1,-23 1.5,-27.5 1,-31 1.5,-35 1,-37 1.5,-40 1,-40.5 1.5,-42 1,-41.5 1.5,-41.5 1,-40.5 1.5,-40 1,-37.5 1.5,-36 1,-33 1.5,-29 1,-23.5 1.5,-16.5 1,-7.5 1.5,2.5 1,13.5 1.5,24.5 1,35 1.5,43.5 1,51 1.5,55.5 1,57.5 1.5,57.5 1,55 1.5,51.5 1,46 1.5,40 1,33.5 1.5,28 1,20.5"
         style="fill:none;stroke:#127833;stroke-width:5;stroke-linecap:butt;stroke-linejoin:miter;stroke-miterlimit:3.8;stroke-dasharray:none;stroke-opacity:1"
         id="path25141" />
      <path
         d="m 1960,1816 1.5,15 1,9 1.5,3 1,-2.5 1.5,-7.5 1,-13 1.5,-17.5 1,-22 1.5,-26 1,-30.5 1.5,-33 1,-36.5 1.5,-38 1,-39.5 1.5,-40.5 1,-40 1.5,-40 1,-39.5 1.5,-37.5 1,-36.5 1.5,-34 1,-31 1.5,-28 1,-22.5 1.5,-16.5 1,-9 1.5,0.5 1,10.5 1.5,21.5 1,32 1.5,41.5 1,49.5 1.5,55.5 1,58.5 1.5,59.5 1,58.5 1.5,55 1,50 1.5,45 1,38 1.5,32 1,25 1.5,18.5 1,12.5 1.5,6 h 1 l 1.5,-5.5 1,-11 1.5,-16.5 1,-21.5 1.5,-26 1,-30.5 1.5,-34.5 1,-37 1.5,-40.5 1,-41 1.5,-42.5 1,-42.5 1.5,-42.5 1,-42 1.5,-40 1,-39 1.5,-36.5 1,-32.5 1.5,-29 1,-23 1.5,-16.5 1,-6.5 1.5,3 1,14.5 1.5,25.5 1,36 1.5,44.5 1,51.5 1.5,56 1,57.5 1.5,57.5 1,54.5 1.5,50.5 1,45 1.5,39.5 1,32.5 1.5,26 1,19.5 1.5,14 1,7.5 1.5,1.5 1,-3.5 1.5,-8.5 1,-14 1.5,-18.5 1,-23.5 1.5,-27 1,-31.5 1.5,-34.5 1,-37 1.5,-39 1,-40 1.5,-41 1,-41 1.5,-40 1,-39.5 1.5,-38.5 1,-36.5 1.5,-34.5 1,-31.5 1.5,-28 1,-23 1.5,-16 1,-8 1.5,1.5 1,12.5 1.5,23 1,34 1.5,43.5 1,50.5 1.5,56 1,59 1.5,59 1,57.5 1.5,54 1,49 1.5,43 1,37 1.5,30.5 1,24 1.5,17 1,11.5 1.5,5 1,-0.5 1.5,-6.5 1,-11.5 1.5,-16.5 1,-22 1.5,-26 1,-30.5 1.5,-34 1,-37 1.5,-39.5 1,-40.5 1.5,-42 1,-42 1.5,-42 1,-40.5 1.5,-39.5 1,-38 1.5,-35.5 1,-32 1.5,-28.5 1,-22.5 1.5,-16 1,-7 1.5,2.5 1,13.5 1.5,24.5 1,35.5 1.5,44 1,51.5 1.5,56 1,58.5 1.5,58.5 1,56 1.5,52 1,47 1.5,41 1,34.5 1.5,27.5 1,21.5 1.5,14.5 1,9 1.5,2.5 1,-2.5 1.5,-8 1,-13.5 1.5,-18.5 1,-23.5 1.5,-27.5 1,-32 1.5,-35 1,-37.5 1.5,-40 1,-41 1.5,-42 1,-41.5 1.5,-41.5 1,-40.5 1.5,-39 1,-37.5 1.5,-35.5 1,-32 1.5,-28 1,-22.5 1.5,-15 1,-7 1.5,4 1,14.5 1.5,25.5 1,36 1.5,45 1,51.5 1.5,56.5 1,58.5 1.5,58 1,55.5 1.5,52 1,46 1.5,41 1,33.5 1.5,28 1,21 1.5,14.5 1,9 1.5,3 1,-2.5 1.5,-8 1,-13 1.5,-18.5 1,-22.5 1.5,-27 1,-31 1.5,-34.5 1,-36.5 1.5,-39.5 1,-40.5 1.5,-41 1,-41 1.5,-41 1,-40 1.5,-38.5 1,-37 1.5,-34.5 1,-31.5 1.5,-27.5 1,-22 1.5,-15 1,-7 1.5,3 1,14 1.5,24.5 1,35 1.5,44.5 1,51.5 1.5,56.5 1,59 1.5,59 1,57 1.5,53 1,48 1.5,42"
         style="fill:none;stroke:#127833;stroke-width:5;stroke-linecap:butt;stroke-linejoin:miter;stroke-miterlimit:3.8;stroke-dasharray:none;stroke-opacity:1"
         id="path25143" />
      <path
         d="m 2271.5,1754 1,35.5 1.5,29 1,22 1.5,16 1,9.5 1.5,3.5 1,-2 1.5,-7.5 1,-13 1.5,-18.5 1,-23 1.5,-27.5 1,-32 1.5,-35 1,-38.5 1.5,-40 1,-41.5 1.5,-42.5 1,-42 1.5,-42 1,-40.5 1.5,-40 1,-37.5 1.5,-35 1,-32 1.5,-28 1,-21.5 1.5,-14 1,-5.5 1.5,5 1,16 1.5,27 1,37.5 1.5,45.5 1,53 1.5,56.5 1,58 1.5,58 1,54.5 1.5,51 1,45 1.5,39 1,32.5 1.5,26 1,19.5 1.5,13.5 1,7.5 1.5,2 1,-4 1.5,-9 1,-14 1.5,-19.5 1,-23.5 1.5,-28 1,-31.5 1.5,-35 1,-37.5 1.5,-39.5 1,-40.5 1.5,-41.5 1,-41 1.5,-40.5 1,-40 1.5,-38 1,-37 1.5,-34 1,-31.5 1.5,-27 1,-21.5 1.5,-14.5 1,-5.5 1.5,4.5 1,15 1.5,26 1,37 1.5,45.5 1,52.5 1.5,57 1,59 1.5,58.5 1,56.5 1.5,52.5 1,47 1.5,41 1,35 1.5,28 1,21.5 1.5,15 1,9 1.5,2.5 1,-2.5 1.5,-8 1,-13.5 1.5,-19 1,-23.5 1.5,-27.5 1,-32 1,-35.5 1.5,-38 1,-40 1.5,-41.5 1,-42 1.5,-42 1,-41.5 1.5,-40.5 1,-39 1.5,-37.5 1,-34.5 1.5,-31.5 1,-27 1.5,-21 1,-13.5 1.5,-4.5 1,5.5 1.5,17 1,27.5 1.5,38 1,46 1.5,53 1,57 1.5,59 1,57.5 1.5,55.5 1,50.5 1.5,45.5 1,39 1.5,32.5 1,26.5 1.5,19.5 1,13 1.5,7.5 1,1.5 1.5,-4 1,-9.5 1.5,-14 1,-19.5 1.5,-24.5 1,-28.5 1.5,-32 1,-35.5 1.5,-38 1,-40 1.5,-41 1,-41.5 1.5,-42 1,-40.5 1.5,-40.5 1,-38.5 1.5,-37 1,-34 1.5,-31 1,-26.5 1.5,-21 1,-13.5 1.5,-4 1,6 1.5,17.5 1,28 1.5,38.5 1,46.5 1.5,53.5 1,57.5 1.5,58.5 1,58 1.5,55.5 1,51 1.5,45.5 1,39.5 1.5,32.5 1,26.5 1.5,19.5 1,13.5 1.5,7.5 1,1.5 1.5,-4 1,-9 1.5,-15 1,-19.5 1.5,-24 1,-28.5 1.5,-32.5 1,-35.5 1.5,-38.5 1,-40 1.5,-41 1,-42 1.5,-41.5 1,-41 1.5,-40 1,-38.5 1.5,-36.5 1,-34 1.5,-30.5 1,-26.5 1.5,-20 1,-12.5 1.5,-4 1,6.5 1.5,17.5 1,28 1.5,39 1,46.5 1.5,53.5 1,57.5 1.5,59 1,58 1.5,55.5 1,51 1.5,45.5 1,39 1.5,33 1,26 1.5,20 1,13 1.5,7.5 1,1.5 1.5,-4 1,-9.5 1.5,-15 1,-19.5 1.5,-24.5 1,-29 1.5,-32.5 1,-35.5 1.5,-38.5 1,-40.5 1.5,-41 1,-42 1.5,-42 1,-41 1.5,-40.5 1,-38.5 1.5,-37 1,-34 1.5,-30.5 1,-26 1.5,-20 1,-12 1.5,-2.5 1,7.5 1.5,18.5 1,30 1.5,39.5 1,48.5 1.5,54 1,57.5 1.5,59 1,57 1.5,55"
         style="fill:none;stroke:#127833;stroke-width:5;stroke-linecap:butt;stroke-linejoin:miter;stroke-miterlimit:3.8;stroke-dasharray:none;stroke-opacity:1"
         id="path25145" />
      <path
         d="m 2582.5,1636.5 1,49.5 1.5,44.5 1,38 1.5,31.5 1,25 1.5,18.5 1,12 1.5,6.5 1,0.5 1.5,-5.5 1,-10 1.5,-15.5 1,-20.5 1.5,-25 1,-29.5 1.5,-33 1,-36 1.5,-38.5 1,-40 1.5,-41.5 1,-41.5 1.5,-41.5 1,-41 1.5,-40 1,-38 1.5,-36.5 1,-33.5 1.5,-30 1,-26 1.5,-19 1,-12 1.5,-2.5 1,8 1.5,18.5 1,30 1.5,40 1,47.5 1.5,54.5 1,57.5 1.5,59 1,58 1.5,54.5 1,50.5 1.5,45 1,38.5 1.5,32 1,25.5 1.5,19 1,12.5 1.5,6.5 1,1 1.5,-4.5 1,-10 1.5,-15.5 1,-20 1.5,-25 1,-29 1.5,-33 1,-36 1.5,-38.5 1,-40 1.5,-41.5 1,-42 1.5,-41.5 1,-41 1.5,-40 1,-38.5 1.5,-36.5 1,-33.5 1.5,-30 1,-25.5 1.5,-19 1,-11 1.5,-1.5 1,9 1.5,19.5 1,31 1.5,40.5 1,49 1.5,54.5 1,58 1.5,59 1,57 1.5,54.5 1,49.5 1.5,44 1,37.5 1.5,31 1,24 1.5,18 1,12 1.5,5.5 h 1 l 1.5,-6 1,-10.5 1.5,-16 1,-21.5 1.5,-25.5 1,-29.5 1.5,-34 1,-36.5 1.5,-39 1,-40.5 1.5,-41.5 1,-42 1.5,-41.5 1,-41 1.5,-39.5 1,-38.5 1.5,-36 1,-33.5 1.5,-30 1,-24.5 1.5,-18.5 1,-10.5 1.5,-1.5 1,10 1.5,20.5 1,31.5 1.5,41 1,49 1.5,55 1,58 1.5,58.5 1,57.5 1.5,54 1,49 1.5,44 1,37 1.5,31 1,24 1.5,18 1,11.5 1.5,5.5 h 1 l 1.5,-6 1,-11 1.5,-16 1,-20.5 1.5,-25.5 1,-30 1.5,-33.5 1,-36 1.5,-39 1,-40 1.5,-41.5 1,-41.5 1.5,-41.5 1,-41 1.5,-39.5 1,-38 1.5,-36 1,-33 1.5,-29.5 1,-24.5 1.5,-18 1,-10 1.5,-0.5 1,10 1.5,21 1,32 1.5,41.5 1,50 1.5,55 1,58 1.5,59 1,57.5 1.5,54 1,49 1.5,43.5 1,37 1.5,31 1,23.5 1.5,17.5 1,11.5 1.5,5 1,-0.5 1.5,-6 1,-11.5 1.5,-16.5 1,-21.5 1.5,-26 1,-30.5 1.5,-34 1,-37 1.5,-39 1,-41 1.5,-42 1,-41.5 1.5,-42 1,-41 1.5,-39.5 1,-38 1.5,-36 1,-33 1.5,-29.5 1,-24 1.5,-17.5 1,-9 h 1.5 l 1,11.5 1.5,22 1,33 1.5,42.5 1,50 1.5,55.5 1,58 1.5,58.5 1,57 1.5,53.5 1,48 1.5,42.5 1,36 1.5,30 1,23 1.5,16.5 1,10.5 1.5,4.5 1,-1 1.5,-6.5 1,-12 1.5,-16.5 1,-22 1.5,-26 1,-30.5 1.5,-34 1,-36.5 1.5,-39 1,-40.5 1.5,-41.5 1,-41.5 1.5,-41.5 1,-40.5 1.5,-39 1,-38 1.5,-35.5 1,-32.5 1.5,-29 1,-23.5 1.5,-17.5 1,-9 1.5,1 1,11.5 1.5,22.5 1,33 1.5,42.5 1,51 1.5,55.5 1,58.5"
         style="fill:none;stroke:#127833;stroke-width:5;stroke-linecap:butt;stroke-linejoin:miter;stroke-miterlimit:3.8;stroke-dasharray:none;stroke-opacity:1"
         id="path25147" />
      <path
         d="m 2893.5,1484 1.5,58.5 1,57 1.5,54 1,48.5 1.5,42.5 1,36.5 1.5,29.5 1,23 1.5,17 1,10.5 1.5,4.5 1,-1 1.5,-7 1,-12 1.5,-17 1,-22.5 1.5,-26.5 1,-30.5 1.5,-34 1,-37.5 1.5,-39.5 1,-41 1.5,-41.5 1,-42 1.5,-41.5 1,-41 1.5,-39.5 1,-37.5 1.5,-36 1,-32.5 1.5,-28.5 1,-23.5 1.5,-16.5 1,-8 1.5,1.5 1,13 1.5,23 1,34.5 1.5,43.5 1,51 1.5,56 1,58.5 1.5,58.5 1,56 1.5,53 1,47.5 1.5,42 1,35.5 1.5,28.5 1,22.5 1.5,16 1,9.5 1.5,4 1,-2 1.5,-7 1,-12.5 1.5,-17.5 1,-22 1.5,-27 1,-31 1.5,-34 1,-37 1.5,-39.5 1,-41 1.5,-41.5 1,-41.5 1.5,-41.5 1,-40.5 1.5,-39 1,-37.5 1.5,-35.5 1,-32 1.5,-29 1,-22.5 1.5,-16.5 1,-7.5 1.5,2 1,13.5 1.5,23.5 1,35 1.5,44 1,51 1.5,56 1,59 1.5,58.5 1,56.5 1.5,53 1,47.5 1.5,42 1,35 1.5,28.5 1,22.5 1.5,15.5 1,9.5 1.5,3.5 1,-1.5 1.5,-7.5 1,-13 1.5,-17.5 1,-23 1.5,-27 1,-31.5 1.5,-34.5 1,-37.5 1.5,-39.5 1,-41 1.5,-42 1,-41.5 1.5,-41.5 1,-40.5 1.5,-39 1,-37.5 1.5,-35.5 1,-32 1.5,-28 1,-22.5 1.5,-15.5 1,-7 1.5,3 1,13.5 1.5,25 1,35.5 1.5,44.5 1,51 1.5,56.5 1,58.5 1.5,59 1,56 1.5,52.5 1,47 1.5,41.5 1,34.5 1,28 1.5,21.5 1,15.5 1.5,9.5 1,3 1.5,-2 1,-8 1.5,-13 1,-18 1.5,-23 1,-27 1.5,-31.5 1,-34.5 1.5,-37.5 1,-39.5 1.5,-41 1,-41.5 1.5,-42 1,-41 1.5,-40.5 1,-39 1.5,-37.5 1,-35 1.5,-32 1,-28 1.5,-22 1,-15.5 1.5,-6 1,3.5 1.5,14.5 1,25 1.5,36.5 1,44.5 1.5,52.5 1,56 1.5,59 1,58.5 1.5,56 1,52 1.5,47 1,40.5 1.5,34.5 1,28 1.5,21 1,15 1.5,8.5 1,3 1.5,-3 1,-8 1.5,-13.5 1,-18.5 1.5,-23.5 1,-27.5 1.5,-31.5 1,-35 1.5,-38 1,-40 1.5,-41 1,-42 1.5,-41.5 1,-41.5 1.5,-40 1,-39 1.5,-37.5 1,-34.5 1.5,-32 1,-27 1.5,-22 1,-14.5 1.5,-6 1,4.5 1.5,15 1,26 1.5,36.5 1,45.5 1.5,52 1,57 1.5,58.5 1,58.5 1.5,55.5 1,52 1.5,46.5 1,40.5 1.5,34 1,27.5 1.5,21 1,14.5 1.5,8.5 1,3 1.5,-3 1,-8.5 1.5,-13.5 1,-18.5 1.5,-23.5 1,-27.5 1.5,-31.5 1,-35.5 1.5,-37.5 1,-39.5 1.5,-41 1,-42 1.5,-41.5 1,-41.5 1.5,-40 1,-39 1.5,-37.5 1,-34.5 1.5,-31.5 1,-27 1.5,-21.5 1,-14.5 1.5,-5 1,4.5 1.5,16 1,26.5 1.5,37.5 1,45.5"
         style="fill:none;stroke:#127833;stroke-width:5;stroke-linecap:butt;stroke-linejoin:miter;stroke-miterlimit:3.8;stroke-dasharray:none;stroke-opacity:1"
         id="path25149" />
      <path
         d="m 3204.5,1338.5 1.5,53 1,57 1.5,58.5 1,58.5 1.5,55.5 1,52 1.5,46 1,40 1.5,33.5 1,27 1.5,20.5 1,14 1.5,8 1,2 1.5,-3 1,-9 1.5,-14 1,-19 1.5,-24.5 1,-28 1.5,-32 1,-35.5 1.5,-38 1,-40 1.5,-41.5 1,-41.5 1.5,-41.5 1,-41.5 1.5,-40.5 1,-38.5 1.5,-37 1,-34.5 1.5,-31.5 1,-27 1.5,-21 1,-13.5 1.5,-4.5 1,5.5 1.5,16 1,27.5 1.5,38 1,46 1.5,53 1,57 1.5,59 1,58 1.5,55.5 1,51 1.5,46 1,39.5 1.5,33 1,26.5 1.5,20.5 1,13.5 1.5,8 1,2 1.5,-3.5 1,-9 1.5,-14.5 1,-19 1.5,-24 1,-28 1.5,-32 1,-35.5 1.5,-38 1,-40 1.5,-40.5 1,-42 1.5,-41.5 1,-41 1.5,-40.5 1,-38.5 1.5,-37 1,-34 1.5,-31 1,-26.5 1.5,-21 1,-13.5 1.5,-4 1,6 1.5,17 1,28 1.5,38 1,47 1.5,53.5 1,57 1.5,59 1,58 1.5,55.5 1,51 1.5,45.5 1,39.5 1.5,33 1,26 1.5,20 1,13.5 1.5,7.5 1,1.5 1.5,-4 1,-9.5 1.5,-14.5 1,-20 1.5,-24.5 1,-28.5 1.5,-32.5 1,-35.5 1.5,-38.5 1,-40 1.5,-41.5 1,-42 1.5,-41.5 1,-41.5 1.5,-40 1,-38.5 1.5,-37 1,-34 1.5,-31 1,-26.5 1.5,-20 1,-12.5 1.5,-4 1,7 1.5,17.5 1,28.5 1.5,39 1,47 1.5,53.5 1,57.5 1.5,59 1,57.5 1.5,55 1,50.5 1.5,45.5 1,38.5 1.5,32.5 1,25.5 1.5,19.5 1,13 1.5,7 1,1.5 1.5,-4.5 1,-9.5 1.5,-15 1,-19.5 1.5,-24.5 1,-28.5 1.5,-32.5 1,-35.5 1.5,-38.5 1,-40 1.5,-41 1,-41.5 1.5,-41.5 1,-41 1.5,-40 1,-38.5 1.5,-37 1,-33.5 1.5,-31 1,-25.5 1.5,-20.5 1,-12 1.5,-3 1,7 1.5,18 1,29.5 1.5,39 1,47.5 1.5,54 1,57.5 1.5,59 1,57.5 1.5,55.5 1,50.5 1.5,45 1,38.5 1.5,32.5 1,25.5 1.5,19 1,13 1.5,6.5 1,1 1.5,-4.5 1,-10 1.5,-15 1,-20.5 1.5,-24.5 1,-29 1.5,-33 1,-36 1.5,-39 1,-40 1.5,-41.5 1,-42 1.5,-41.5 1,-41.5 1.5,-40 1,-38.5 1.5,-36.5 1,-33.5 1.5,-30.5 1,-26 1.5,-19.5 1,-11.5 1.5,-2.5 1,8 1.5,18.5 1,30 1.5,40 1,48 1.5,54 1,57.5 1.5,59 1,57.5 1.5,54.5 1,50 1.5,44.5 1,38 1.5,31.5 1,25 1.5,19 1,12 1.5,6.5 1,0.5 1.5,-4.5 1,-10.5 1.5,-15 1,-20.5 1.5,-25 1,-29 1.5,-33 1,-35.5 1.5,-38.5 1,-40.5 1.5,-41 1,-42 1.5,-41.5 1,-40.5 1.5,-40 1,-38.5 1.5,-36 1,-34 1.5,-30 1,-25.5 1.5,-19 1,-11.5 1.5,-2 1,8.5 1.5,19"
         style="fill:none;stroke:#127833;stroke-width:5;stroke-linecap:butt;stroke-linejoin:miter;stroke-miterlimit:3.8;stroke-dasharray:none;stroke-opacity:1"
         id="path25151" />
      <path
         d="m 3516,1235.5 1,30.5 1.5,40 1,48.5 1.5,54.5 1,57.5 1.5,59 1,57.5 1.5,55 1,49.5 1.5,44.5 1,38 1.5,31.5 1,25 1.5,18.5 1,12 1.5,6 1,0.5 1.5,-5.5 1,-10 1.5,-16 1,-20.5 1.5,-25.5 1,-29.5 1.5,-33.5 1,-36 1.5,-39 1,-40.5 1.5,-41.5 1,-42 1.5,-41.5 1,-41 1.5,-39.5 1,-38.5 1.5,-36.5 1,-33.5 1.5,-30 1,-25 1.5,-18.5 1,-11 1.5,-1.5 1,9.5 1.5,19.5 1,31 1.5,41 1,48.5 1.5,54.5 1,58 1.5,59 1,57 1.5,54.5 1,49.5 1.5,43.5 1,37.5 1.5,31 1,24.5 1.5,18 1,11.5 1.5,6 h 1 l 1.5,-5.5 1,-10.5 1.5,-16 1,-20.5 1.5,-25.5 1,-29.5 1.5,-33.5 1,-36 1.5,-38.5 1,-40.5 1.5,-41.5 1,-41.5 1.5,-41.5 1,-41 1.5,-39.5 1,-38 1.5,-36.5 1,-33 1.5,-30 1,-24.5 1.5,-19 1,-10 1.5,-1 1,9.5 1.5,20.5 1,31.5 1.5,41 1,49 1.5,55 1,58 1.5,59 1,57 1.5,54.5 1,49 1.5,44 1,37 1.5,31 1,24 1.5,17.5 1,12 1.5,5 h 1 l 1.5,-6 1,-11 1.5,-16 1,-21.5 1.5,-26 1,-29.5 1.5,-34 1,-36.5 1.5,-39 1,-40.5 1.5,-42 1,-41.5 1.5,-41.5 1,-41 1.5,-39.5 1,-38 1.5,-36 1,-33.5 1.5,-29.5 1,-24.5 1.5,-18 1,-9.5 1.5,-1 1,10.5 1.5,21 1,32 1.5,42 1,49.5 1.5,55 1,58 1.5,58.5 1,57.5 1.5,53.5 1,49 1.5,43 1,37 1.5,30.5 1,23.5 1.5,17.5 1,11 1.5,5.5 1,-0.5 1.5,-6 1,-11.5 1.5,-16.5 1,-21 1.5,-26 1,-30 1.5,-33.5 1,-36 1.5,-39.5 1,-40 1.5,-41.5 1,-42 1.5,-41.5 1,-40.5 1.5,-39.5 1,-38 1.5,-36 1,-33 1.5,-29.5 1,-24 1.5,-18 1,-9 h 1.5 l 1,10.5 1,21.5 1.5,32.5 1,42 1.5,50 1,55.5 1.5,58 1,59 1.5,57 1,54 1.5,48.5 1,43 1.5,36.5 1,30 1.5,23.5 1,17 1.5,11 1,5 1.5,-1 1,-6.5 1.5,-11.5 1,-16.5 1.5,-22 1,-26.5 1.5,-30 1,-34 1.5,-37 1,-39.5 1.5,-40.5 1,-41.5 1.5,-42 1,-41.5 1.5,-40.5 1,-39.5 1.5,-38 1,-35.5 1.5,-33 1,-29 1.5,-24 1,-17.5 1.5,-8.5 h 1 l 1.5,11.5 1,22.5 1.5,33 1,42.5 1.5,50 1,55.5 1.5,58.5 1,58.5 1.5,57 1,53.5 1.5,48 1,42.5 1.5,36 1,30 1.5,23 1,16.5 1.5,10.5 1,5 1.5,-1 1,-7 1.5,-11.5 1,-17 1.5,-21.5 1,-26.5 1.5,-30 1,-34 1.5,-37 1,-39 1.5,-40.5 1,-41.5 1.5,-41.5 1,-41.5 1.5,-40.5 1,-39.5 1.5,-38 1,-35.5 1.5,-32.5 1,-29 1.5,-23.5 1,-17.5 1.5,-8"
         style="fill:none;stroke:#127833;stroke-width:5;stroke-linecap:butt;stroke-linejoin:miter;stroke-miterlimit:3.8;stroke-dasharray:none;stroke-opacity:1"
         id="path25153" />
      <path
         d="m 3827,1208.5 1,1 1.5,11.5 1,23 1.5,33.5 1,43 1.5,50.5 1,55.5 1.5,58.5 1,59 1.5,56.5 1,53.5 1.5,48 1,42.5 1.5,36 1,29.5 1.5,22.5 1,16.5 1.5,10.5 1,4 1.5,-1.5 1,-7 1.5,-12 1,-17 1.5,-22.5 1,-26.5 1.5,-31 1,-34 1.5,-37.5 1,-39.5 1.5,-40.5 1,-42 1.5,-41.5 1,-41.5 1.5,-40.5 1,-39.5 1.5,-38 1,-35 1.5,-33 1,-28.5 1.5,-23 1,-16.5 1.5,-8 1,1.5 1.5,12.5 1,23 1.5,34.5 1,43.5 1.5,50.5 1,56 1.5,58.5 1,58.5 1.5,56.5 1,53 1.5,47.5 1,42 1.5,35.5 1,29 1.5,22.5 1,16 1.5,10 1,4 1.5,-2 1,-7 1.5,-12 1,-17.5 1.5,-22 1,-27 1.5,-30.5 1,-34.5 1.5,-37 1,-39 1.5,-41 1,-41.5 1.5,-41.5 1,-41.5 1.5,-40.5 1,-39 1.5,-37.5 1,-35.5 1.5,-32 1,-29 1.5,-22.5 1,-16.5 1.5,-7.5 1,2 1.5,13 1,23.5 1.5,35 1,43.5 1.5,51.5 1,56 1.5,58.5 1,58.5 1.5,56.5 1,53 1.5,47.5 1,42 1.5,35 1,29 1.5,22 1,16 1.5,9.5 1,3.5 1.5,-2 1,-7.5 1.5,-12.5 1,-18 1.5,-22.5 1,-27 1.5,-31 1,-34.5 1.5,-37.5 1,-40 1.5,-40.5 1,-42 1.5,-41.5 1,-42 1.5,-40 1,-39.5 1.5,-37.5 1,-35 1.5,-32.5 1,-28 1.5,-23 1,-15.5 1.5,-7 1,2.5 1.5,14 1,24 1.5,35.5 1,44 1.5,51.5 1,56.5 1.5,58.5 1,58.5 1.5,56 1,52.5 1.5,47 1,41.5 1.5,34.5 1,28.5 1.5,21.5 1,15.5 1.5,9.5 1,3.5 1.5,-2.5 1,-7.5 1.5,-12.5 1,-18 1.5,-22.5 1,-27.5 1.5,-31 1,-34.5 1.5,-37 1,-39.5 1.5,-41 1,-41.5 1.5,-41.5 1,-41.5 1.5,-40.5 1,-39 1.5,-37.5 1,-35 1.5,-32 1,-28 1.5,-22 1,-16 1.5,-6.5 1,3 1.5,14 1,25 1.5,36 1,44.5 1.5,52 1,56 1.5,59 1,58 1.5,56.5 1,52.5 1.5,47 1,41 1.5,34.5 1,28.5 1.5,21.5 1,15 1.5,9 1,3 1.5,-2.5 1,-8 1.5,-13 1,-18.5 1.5,-23 1,-27.5 1.5,-31.5 1,-35 1.5,-37.5 1,-40 1.5,-41 1,-42 1.5,-41.5 1,-41.5 1.5,-40 1,-39.5 1.5,-37 1,-35 1.5,-32 1,-27.5 1.5,-22 1,-15 1.5,-6 1,3.5 1.5,14.5 1,25.5 1.5,36.5 1,45 1.5,52 1,56.5 1.5,58.5 1,58.5 1.5,56 1,52 1.5,46.5 1,40.5 1.5,34 1,28 1.5,21 1,15 1.5,8.5 1,3 1.5,-3 1,-8 1.5,-13.5 1,-18 1.5,-23 1,-28 1.5,-31 1,-35 1.5,-37.5 1,-40 1.5,-40.5 1,-41.5 1.5,-42 1,-41 1.5,-40.5 1,-38.5 1.5,-37.5 1,-34.5 1.5,-32 1,-27.5"
         style="fill:none;stroke:#127833;stroke-width:5;stroke-linecap:butt;stroke-linejoin:miter;stroke-miterlimit:3.8;stroke-dasharray:none;stroke-opacity:1"
         id="path25155" />
      <path
         d="m 4138,1249.5 1.5,-21.5 1,-15 1.5,-5.5 1,4 1.5,15 1,26 1.5,37 1,45 1.5,52.5 1,57 1.5,58.5 1,58.5 1.5,56 1,52 1.5,46 1,40.5 1.5,34 1,27.5 1.5,21 1,14.5 1.5,8.5 1,2.5 1.5,-3 1,-8.5 1.5,-13.5 1,-19 1.5,-23.5 1,-28 1.5,-32 1,-35 1.5,-38 1,-40 1.5,-41 1,-42 1.5,-41.5 1,-41.5 1.5,-40 1,-39 1.5,-37.5 1,-34.5 1.5,-31.5 1,-27 1.5,-21.5 1,-14 1.5,-5.5 1,5 1.5,15.5 1,27 1.5,37 1,46 1.5,52.5 1,56.5 1.5,59 1,58 1.5,55.5 1,51.5 1.5,46 1,40 1.5,33.5 1,27.5 1.5,20 1,14.5 1.5,8 1,2.5 1.5,-3.5 1,-8.5 1.5,-14 1,-18.5 1.5,-24 1,-28 1.5,-31.5 1,-35 1.5,-38 1,-40 1.5,-40.5 1,-42 1.5,-41.5 1,-41 1.5,-40.5 1,-38.5 1.5,-37 1,-34.5 1.5,-31.5 1,-27 1.5,-21 1,-14 1.5,-4.5 1,5 1.5,16 1,27.5 1.5,37.5 1,46 1.5,53 1,57 1.5,59 1,58 1.5,55.5 1,51.5 1.5,46 1,40 1.5,33 1,27 1.5,20 1,14 1.5,8 1,2 1.5,-3.5 1,-9 1.5,-14.5 1,-19 1.5,-24.5 1,-28 1.5,-32 1,-35.5 1.5,-38.5 1,-40 1.5,-41 1,-42 1.5,-41.5 1,-41.5 1.5,-40 1,-39 1.5,-37 1,-34 1.5,-31.5 1,-26.5 1.5,-20.5 1,-13.5 1.5,-4.5 1,6 1.5,17 1,27.5 1.5,38 1,46.5 1.5,53.5 1,57 1.5,58.5 1,58 1.5,55.5 1,51 1.5,45.5 1,39 1.5,33 1,26.5 1.5,20 1,13.5 1.5,7.5 1,2 1.5,-4 1,-9 1.5,-14.5 1,-19.5 1.5,-24 1,-28 1.5,-32.5 1,-35.5 1.5,-37.5 1,-40 1.5,-41 1,-42 1.5,-41.5 1,-41 1.5,-40 1,-38.5 1.5,-37 1,-34 1.5,-31 1,-26.5 1.5,-20.5 1,-13 1.5,-4 1,6 1.5,17.5 1,28 1.5,38.5 1,47 1.5,53.5 1,57.5 1.5,58.5 1,58 1.5,55.5 1,51 1.5,45 1,39.5 1.5,32.5 1,26 1.5,20 1,13 1.5,7.5 1,1.5 1.5,-4.5 1,-9.5 1.5,-14.5 1,-20 1.5,-24.5 1,-28.5 1.5,-32.5 1,-36 1.5,-38.5 1,-40 1.5,-41.5 1,-41.5"
         style="fill:none;stroke:#127833;stroke-width:5;stroke-linecap:butt;stroke-linejoin:miter;stroke-miterlimit:3.8;stroke-dasharray:none;stroke-opacity:1"
         id="path25157" />
      <path
         d="M 392,2470.5 V 256 h 3998.5 v 2214.5 z"
         style="fill:none;stroke:#000000;stroke-width:5;stroke-linecap:butt;stroke-linejoin:miter;stroke-miterlimit:3.8;stroke-dasharray:none;stroke-opacity:1"
         id="path25159" />
      <g
         id="g25161"
         transform="scale(10)">
        <text
           xml:space="preserve"
           transform="matrix(0,1,1,0,19.8648,130.744)"
           style="font-variant:normal;font-weight:normal;font-size:8px;font-family:Times;-inkscape-font-specification:Times-Roman;writing-mode:lr-tb;fill:#000000;fill-opacity:1;fill-rule:nonzero;stroke:none"
           id="text25165"><tspan
             x="0 5.336"
             y="0"
             sodipodi:role="line"
             id="tspan25163">CD</tspan></text>
        <text
           xml:space="preserve"
           transform="matrix(1,0,0,-1,227.768,2.93516)"
           style="font-variant:normal;font-weight:normal;font-size:8px;font-family:Times;-inkscape-font-specification:Times-Roman;writing-mode:lr-tb;fill:#000000;fill-opacity:1;fill-rule:nonzero;stroke:none"
           id="text25169"><tspan
             x="0 4.888 8.4399996 14.664 18.664"
             y="0"
             sodipodi:role="line"
             id="tspan25167">Tempo</tspan></text>
      </g>
    </g>
    <g
       transform="matrix(0.799998 0 0 -0.799998 98.8791 81.6462)"
       ns4:version="1.8.2"
       ns4:texconverter="pdflatex"
       ns4:pdfconverter="inkscape"
       ns4:text="$0\\text{,}6$"
       ns4:preamble="/home/user/.config/inkscape/extensions/textext/default_packages.tex"
       ns4:scale="0.8"
       ns4:alignment="middle center"
       ns4:stroke-to-path="0"
       ns4:jacobian_sqrt="0.799998"
       id="g25969">
      <defs
         id="id-943495e6-fc2c-4ca0-bd48-de956a6bb1a3">
        <g
           id="id-4a317f30-d36a-4fd1-b625-edc8bcff7ada">
          <g
             id="id-410240cc-f43c-458e-88c4-73d59e6fa841">
            <path
               d="m 4.578125,-3.1875 c 0,-0.796875 -0.046875,-1.59375 -0.390625,-2.328125 -0.453125,-0.96875 -1.28125,-1.125 -1.6875,-1.125 -0.609375,0 -1.328125,0.265625 -1.75,1.1875 -0.3125,0.6875 -0.359375,1.46875 -0.359375,2.265625 0,0.75 0.03125,1.640625 0.453125,2.40625 0.421875,0.796875 1.15625,1 1.640625,1 0.53125,0 1.296875,-0.203125 1.734375,-1.15625 0.3125,-0.6875 0.359375,-1.46875 0.359375,-2.25 z M 2.484375,0 C 2.09375,0 1.5,-0.25 1.328125,-1.203125 1.21875,-1.796875 1.21875,-2.71875 1.21875,-3.3125 c 0,-0.640625 0,-1.296875 0.078125,-1.828125 0.1875,-1.1875 0.9375,-1.28125 1.1875,-1.28125 0.328125,0 0.984375,0.1875 1.171875,1.171875 0.109375,0.5625 0.109375,1.3125 0.109375,1.9375 0,0.75 0,1.421875 -0.109375,2.0625 C 3.5,-0.296875 2.9375,0 2.484375,0 Z m 0,0"
               id="id-5e2580bf-63ae-4083-8d02-0b14fe55d30f" />
          </g>
          <g
             id="id-6c2b642d-92f4-47f1-96dd-29f5ac92ac9f">
            <path
               d="m 2.03125,-0.015625 c 0,-0.625 -0.25,-1.046875 -0.640625,-1.046875 -0.359375,0 -0.53125,0.28125 -0.53125,0.53125 0,0.265625 0.171875,0.53125 0.53125,0.53125 0.15625,0 0.28125,-0.0625 0.375,-0.140625 L 1.78125,-0.15625 c 0.015625,0 0.015625,0 0.015625,0.140625 0,0.640625 -0.265625,1.25 -0.703125,1.71875 -0.0625,0.0625 -0.078125,0.078125 -0.078125,0.109375 0,0.078125 0.046875,0.109375 0.09375,0.109375 0.125,0 0.921875,-0.78125 0.921875,-1.9375 z m 0,0"
               id="id-b4716ab7-5da6-4beb-bba3-42ab892a207b" />
          </g>
          <g
             id="id-531a5b93-c5af-4ef9-8113-c37386886f46">
            <path
               d="m 1.3125,-3.265625 v -0.25 c 0,-2.515625 1.234375,-2.875 1.75,-2.875 0.234375,0 0.65625,0.0625 0.875,0.40625 -0.15625,0 -0.546875,0 -0.546875,0.4375 0,0.3125 0.234375,0.46875 0.453125,0.46875 0.15625,0 0.46875,-0.09375 0.46875,-0.484375 0,-0.59375 -0.4375,-1.078125 -1.265625,-1.078125 -1.28125,0 -2.625,1.28125 -2.625,3.484375 0,2.671875 1.15625,3.375 2.078125,3.375 1.109375,0 2.0625,-0.9375 2.0625,-2.25 0,-1.265625 -0.890625,-2.21875 -2,-2.21875 -0.671875,0 -1.046875,0.5 -1.25,0.984375 z M 2.5,-0.0625 c -0.625,0 -0.921875,-0.59375 -0.984375,-0.75 -0.1875,-0.46875 -0.1875,-1.265625 -0.1875,-1.4375 0,-0.78125 0.328125,-1.78125 1.21875,-1.78125 0.171875,0 0.625,0 0.9375,0.625 0.171875,0.359375 0.171875,0.875 0.171875,1.359375 0,0.484375 0,0.984375 -0.171875,1.34375 C 3.1875,-0.109375 2.734375,-0.0625 2.5,-0.0625 Z m 0,0"
               id="id-132f0cf6-eb59-4414-92d0-8bb64b503c26" />
          </g>
        </g>
      </defs>
      <g
         fill="#000000"
         fill-opacity="1"
         id="id-300a0694-f833-4b40-8619-3399c25e5470"
         transform="translate(-149.103, -128.124)">
        <g
           transform="translate(148.712, 134.765)"
           id="g25960">
          <path
             d="m 4.578125,-3.1875 c 0,-0.796875 -0.046875,-1.59375 -0.390625,-2.328125 -0.453125,-0.96875 -1.28125,-1.125 -1.6875,-1.125 -0.609375,0 -1.328125,0.265625 -1.75,1.1875 -0.3125,0.6875 -0.359375,1.46875 -0.359375,2.265625 0,0.75 0.03125,1.640625 0.453125,2.40625 0.421875,0.796875 1.15625,1 1.640625,1 0.53125,0 1.296875,-0.203125 1.734375,-1.15625 0.3125,-0.6875 0.359375,-1.46875 0.359375,-2.25 z M 2.484375,0 C 2.09375,0 1.5,-0.25 1.328125,-1.203125 1.21875,-1.796875 1.21875,-2.71875 1.21875,-3.3125 c 0,-0.640625 0,-1.296875 0.078125,-1.828125 0.1875,-1.1875 0.9375,-1.28125 1.1875,-1.28125 0.328125,0 0.984375,0.1875 1.171875,1.171875 0.109375,0.5625 0.109375,1.3125 0.109375,1.9375 0,0.75 0,1.421875 -0.109375,2.0625 C 3.5,-0.296875 2.9375,0 2.484375,0 Z m 0,0"
             id="id-e389dfbb-2b68-4b5e-8f46-15322f4640b1" />
        </g>
        <g
           transform="translate(153.693, 134.765)"
           id="g25963">
          <path
             d="m 2.03125,-0.015625 c 0,-0.625 -0.25,-1.046875 -0.640625,-1.046875 -0.359375,0 -0.53125,0.28125 -0.53125,0.53125 0,0.265625 0.171875,0.53125 0.53125,0.53125 0.15625,0 0.28125,-0.0625 0.375,-0.140625 L 1.78125,-0.15625 c 0.015625,0 0.015625,0 0.015625,0.140625 0,0.640625 -0.265625,1.25 -0.703125,1.71875 -0.0625,0.0625 -0.078125,0.078125 -0.078125,0.109375 0,0.078125 0.046875,0.109375 0.09375,0.109375 0.125,0 0.921875,-0.78125 0.921875,-1.9375 z m 0,0"
             id="id-bd9458c5-5c3d-4838-a2c0-721e6995f388" />
        </g>
        <g
           transform="translate(156.461, 134.765)"
           id="g25966">
          <path
             d="m 1.3125,-3.265625 v -0.25 c 0,-2.515625 1.234375,-2.875 1.75,-2.875 0.234375,0 0.65625,0.0625 0.875,0.40625 -0.15625,0 -0.546875,0 -0.546875,0.4375 0,0.3125 0.234375,0.46875 0.453125,0.46875 0.15625,0 0.46875,-0.09375 0.46875,-0.484375 0,-0.59375 -0.4375,-1.078125 -1.265625,-1.078125 -1.28125,0 -2.625,1.28125 -2.625,3.484375 0,2.671875 1.15625,3.375 2.078125,3.375 1.109375,0 2.0625,-0.9375 2.0625,-2.25 0,-1.265625 -0.890625,-2.21875 -2,-2.21875 -0.671875,0 -1.046875,0.5 -1.25,0.984375 z M 2.5,-0.0625 c -0.625,0 -0.921875,-0.59375 -0.984375,-0.75 -0.1875,-0.46875 -0.1875,-1.265625 -0.1875,-1.4375 0,-0.78125 0.328125,-1.78125 1.21875,-1.78125 0.171875,0 0.625,0 0.9375,0.625 0.171875,0.359375 0.171875,0.875 0.171875,1.359375 0,0.484375 0,0.984375 -0.171875,1.34375 C 3.1875,-0.109375 2.734375,-0.0625 2.5,-0.0625 Z m 0,0"
             id="id-f8b62a58-5de9-4cc9-b084-65df49e55e85" />
        </g>
      </g>
    </g>
  </g>
</svg>
